<?xml version="1.0" encoding="UTF-8"?>
<svg id="Capa_1" xmlns="http://www.w3.org/2000/svg" version="1.1" viewBox="0 0 300 99.8">
  <!-- Generator: Adobe Illustrator 30.1.0, SVG Export Plug-In . SVG Version: 2.1.1 Build 136)  -->
  <g>
    <path d="M140.3,17.8c-.7,0-1.4-.2-1.9-.7-.5-.5-.8-1.2-.8-2.3v-4.7h-1.3c-.1,0-.2-.2-.2-.6s0-.2,0-.2c.4-.2.7-.4,1-.6.3-.2.6-.4.8-.5.6-.5,1-.8,1.3-1.1.3-.2.4-.4.4-.4.1,0,.2,0,.3,0,.1,0,.2,0,.2.2v2h2.2c.1,0,.2,0,.2.2,0,.4,0,.7-.2,1h-2.2v4.8c0,1,.4,1.6,1.1,1.6s.6,0,.8-.2c.2-.1.3-.2.3-.2s.1,0,.2.2c0,.1,0,.2,0,.3,0,.1-.1.3-.4.4-.3.2-.6.3-1,.5-.4.1-.7.2-1.1.2Z"/>
    <path d="M143.8,17.8c0,0,0-.2,0-.4s0-.3,0-.3c.1,0,.3,0,.5,0,.2,0,.4-.1.6-.2.2,0,.3-.1.3-.2,0-.4.1-.9.1-1.6V6.8c0-.3,0-.6,0-.8,0-.2,0-.5,0-.6,0-.2-.4-.3-1.1-.3h-.2c0,0-.1-.1-.1-.4s0-.3.1-.3c.8,0,1.5-.2,2.2-.3.7-.2,1.2-.3,1.5-.4h.2c0,0,0,0,0,0,0,0,.1,0,.2.1s0,.2.1.2c-.2.6-.2,1.3-.2,2.1v3.8c0,0,0,.1,0,.1s0,0,.1,0c.3-.3.7-.6,1.3-.8.5-.2,1.1-.3,1.7-.3s1.4.3,1.9,1c.5.7.7,1.7.7,3v2c0,.9,0,1.5.1,1.9,0,0,.1.1.3.2.2,0,.4.2.6.2.2,0,.3,0,.4,0s0,0,0,.2c0,.1,0,.2,0,.3s0,.2,0,.2c0,0-.2,0-.5,0-.2,0-.5,0-.8,0s-.6,0-.9,0c-.3,0-.5,0-.7,0s-.5,0-.9,0c-.4,0-.8,0-1.1,0-.4,0-.6,0-.7,0,0,0,0-.2,0-.4s0-.3,0-.3c.1,0,.3,0,.4,0,.2,0,.4-.1.5-.2s.3-.1.3-.2c0-.4.1-.9.1-1.6v-1.8c0-1-.1-1.7-.4-2.2-.3-.4-.7-.6-1.3-.6-1,0-1.4.3-1.4.9v3.4c0,.9,0,1.5.1,1.9,0,0,.1.1.3.2s.3.2.5.2c.2,0,.3,0,.4,0s0,0,0,.2c0,.1,0,.2,0,.3s0,.2,0,.2c-.1,0-.3,0-.7,0-.4,0-.7,0-1.1,0-.4,0-.7,0-.9,0s-.4,0-.7,0c-.3,0-.6,0-.9,0-.3,0-.6,0-.8,0-.2,0-.4,0-.5,0Z"/>
    <path d="M160.1,17.8c-.8,0-1.6-.2-2.3-.6-.7-.4-1.3-1-1.7-1.7-.4-.7-.6-1.5-.6-2.3s.2-1.7.6-2.3c.4-.7.9-1.2,1.6-1.7.7-.4,1.4-.6,2.3-.6s1.6.2,2.2.6c.6.4,1.1.9,1.4,1.5.3.6.5,1.2.5,1.8s0,.5-.2.6c-.1,0-.4.1-.8.1h-4.6c0,0-.1,0-.1.1,0,.5,0,1,.3,1.4.2.4.5.8.8,1.1.4.3.8.4,1.3.4s.9,0,1.3-.2c.3,0,.5-.2.6-.2.1,0,.3-.1.4-.2.1,0,.3-.2.5-.3.1,0,.2.2.2.4s0,.3,0,.4c0,.2-.3.5-.6.8-.3.3-.8.5-1.3.8-.5.2-1,.3-1.6.3ZM158.5,12.1h2.6c.2,0,.3-.1.3-.4,0-.5-.1-1-.4-1.4-.3-.4-.6-.6-1.1-.6s-.7.1-.9.4c-.2.3-.4.6-.5.9,0,.3-.1.6-.1.8s0,.2.1.2Z"/>
  </g>
  <g>
    <path d="M119.5,92.6c-.7,0-1.4-.2-2-.5s-1.1-.8-1.4-1.5-.5-1.3-.5-2.1.2-1.4.6-1.9c.4-.6.9-1,1.5-1.4.6-.3,1.3-.5,2.1-.5s1.1.1,1.6.3c.5.2.9.4,1.1.7,0,1.1-.3,1.6-.9,1.6s-.8-.3-1-.9c-.1-.3-.2-.5-.4-.6-.2-.1-.4-.2-.7-.2-.9,0-1.4.9-1.4,2.6s.7,2.9,2,2.9.8,0,1.1-.2c.2,0,.4-.1.5-.2.1,0,.2-.1.4-.2.1,0,.2-.2.4-.3.1,0,.2.2.2.3s0,.3,0,.3c0,.2-.2.4-.5.7-.3.2-.6.5-1.1.6-.4.2-.9.3-1.4.3Z"/>
    <path d="M127.5,92.6c-.8,0-1.4-.2-2.1-.5-.6-.4-1.1-.8-1.5-1.4-.4-.6-.5-1.3-.5-2s.2-1.4.5-2c.4-.6.9-1.1,1.5-1.4.6-.4,1.3-.5,2.1-.5s1.5.2,2.1.5c.6.4,1.1.8,1.5,1.4.4.6.5,1.3.5,2s-.2,1.4-.5,2c-.4.6-.8,1.1-1.5,1.4-.6.4-1.3.5-2.1.5ZM127.7,91.7c.3,0,.6-.1.8-.3.2-.2.4-.5.5-.9,0-.4.1-.8.1-1.2,0-2.4-.6-3.6-1.8-3.6s-.6.1-.8.3c-.2.2-.4.5-.4.9,0,.4-.1.8-.1,1.2,0,2.4.6,3.5,1.8,3.5Z"/>
    <path d="M132.6,92.6s0-.2,0-.4,0-.3,0-.3c0,0,.2,0,.4,0,.2,0,.3-.1.5-.2.2,0,.2-.1.2-.2,0-.3.1-.8.1-1.3v-2.4c0-.6-.1-1.1-.3-1.3,0-.1-.2-.2-.4-.2-.2,0-.3,0-.4,0-.1,0-.2,0-.2,0,0-.4,0-.6,0-.6.3,0,.8,0,1.3-.2.5-.1,1.1-.2,1.8-.4h.3c0,0,.1,0,.2,0,0,0,0,.1,0,.2v.5c0,0,0,0,0,.1,0,0,0,0,.1,0,.6-.6,1.4-.9,2.4-.9s1.4.4,1.8,1.2c.7-.8,1.8-1.2,3.1-1.2.7,0,1.2.3,1.6.9.4.6.6,1.4.6,2.6v1.7c0,.8,0,1.3.1,1.6,0,0,.1.1.3.2.1,0,.3.1.5.2.2,0,.3,0,.3,0s0,0,0,.1c0,0,0,.2,0,.3s0,.2,0,.2c0,0-.2,0-.4,0-.2,0-.4,0-.7,0-.2,0-.5,0-.7,0-.2,0-.4,0-.6,0s-.4,0-.8,0c-.3,0-.7,0-1,0-.3,0-.5,0-.6,0,0,0,0-.2,0-.4s0-.3,0-.3c0,0,.2,0,.4,0,.2,0,.3-.1.5-.2.1,0,.2-.1.2-.2,0-.3.1-.8.1-1.3v-1.6c0-.8-.1-1.4-.4-1.8-.2-.4-.6-.6-1.1-.6s-.6,0-.8.2-.4.3-.4.6c0,.1,0,.2,0,.4,0,.2,0,.4,0,.8v1.7c0,.8,0,1.3.1,1.6,0,0,.1.1.3.2.1,0,.3.1.5.2.2,0,.3,0,.3,0s0,0,0,.1c0,0,0,.2,0,.3s0,.2,0,.2c0,0-.2,0-.4,0-.2,0-.4,0-.7,0-.2,0-.5,0-.7,0-.2,0-.4,0-.6,0s-.4,0-.8,0c-.3,0-.7,0-1,0-.3,0-.5,0-.6,0,0,0,0-.2,0-.4s0-.3,0-.3c0,0,.2,0,.4,0s.3-.1.5-.2c.1,0,.2-.1.2-.2,0-.3.1-.8.1-1.3v-1.6c0-.9-.1-1.5-.4-1.8-.2-.4-.6-.5-1.1-.5s-.6,0-.9.2c-.2.1-.3.3-.3.6v2.9c0,.8,0,1.3.1,1.6,0,0,.1.1.2.2.1,0,.3.1.5.2.2,0,.3,0,.3,0s0,0,0,.1c0,0,0,.2,0,.3s0,.2,0,.2c0,0-.3,0-.6,0-.3,0-.6,0-.9,0s-.6,0-.8,0-.3,0-.6,0c-.2,0-.5,0-.7,0-.3,0-.5,0-.7,0-.2,0-.3,0-.4,0Z"/>
    <path d="M148,96.3s0-.2,0-.3,0-.3,0-.3c0,0,.2,0,.4,0,.2,0,.3-.1.5-.2.2,0,.2-.1.2-.2,0-.3.1-.8.1-1.3v-6.1c0-.6-.1-1.1-.3-1.3,0-.1-.2-.2-.4-.2-.2,0-.3,0-.4,0-.1,0-.2,0-.2,0,0-.4,0-.6,0-.6.4,0,.8,0,1.2-.1.5,0,1-.2,1.6-.4.3-.1.5-.2.6-.2,0,0,.1,0,.1.2s0,0,0,.1c0,0,0,.1,0,.2.5-.4,1-.6,1.6-.6s1.4.2,2,.5,1,.8,1.4,1.4c.3.6.5,1.2.5,1.9s-.2,1.6-.6,2.2c-.4.6-.9,1.1-1.5,1.4-.7.3-1.4.5-2.2.5s-.5,0-.7,0c-.2,0-.3,0-.3,0,0,0,0,0,0,.3v.9c0,.8,0,1.3.1,1.6,0,0,.1.1.3.2.2,0,.3.1.5.2.2,0,.3,0,.4,0s0,0,0,.1c0,0,0,.2,0,.3s0,.2,0,.2c0,0-.2,0-.4,0-.2,0-.4,0-.7,0-.3,0-.5,0-.7,0-.2,0-.4,0-.6,0s-.3,0-.6,0c-.2,0-.5,0-.7,0-.3,0-.5,0-.7,0-.2,0-.3,0-.4,0ZM152.9,91.7c1,0,1.6-.9,1.6-2.6s-.5-3.4-1.6-3.4-.7.1-1,.4-.4.6-.4.9v3.3c0,.4.1.8.4,1,.3.2.6.4.9.4Z"/>
    <path d="M159.9,92.6c-.6,0-1.1-.2-1.5-.5-.4-.4-.6-.8-.6-1.3s.1-.8.4-1.2c.3-.3.6-.6,1.1-.8.2,0,.3-.1.5-.2s.3-.1.4-.1c.4-.1.8-.2,1.1-.3s.5-.1.6-.2c.1,0,.2-.1.2-.3v-.6c0-.9-.3-1.4-.9-1.4s-1,.4-1,1.2-.1.4-.3.6c-.2.1-.4.2-.7.2-.5,0-.9-.2-1.1-.5,0-.3.1-.6.3-.9.2-.3.5-.5.9-.8.4-.2.8-.4,1.2-.5.4-.1.9-.2,1.3-.2.8,0,1.4.2,1.9.7.4.4.7,1.3.7,2.4v2.8c0,.4.1.6.4.6s.4,0,.6-.2c0,0,.1.1.1.3,0,.3,0,.5-.1.6-.2.2-.4.3-.8.5-.4.2-.7.3-1,.3s-.5,0-.8-.3c-.3-.2-.4-.4-.5-.6,0,0,0,0-.2.1-.1,0-.2.1-.3.2-.2.2-.5.3-.8.4-.3.1-.6.2-.9.2ZM161,91.4c.3,0,.5,0,.7-.2.2-.1.3-.3.3-.5v-1.8l-.9.3c-.2,0-.5.2-.7.4-.2.2-.3.4-.3.6,0,.4,0,.7.3.9.2.2.4.3.7.3Z"/>
    <path d="M166.2,92.6s0-.2,0-.4,0-.3,0-.3c0,0,.2,0,.4,0s.3-.1.5-.2c.2,0,.2-.1.3-.2,0-.3.1-.8.1-1.3v-2.4c0-.6-.1-1.1-.3-1.3,0-.1-.2-.2-.4-.2-.2,0-.3,0-.4,0-.1,0-.2,0-.2,0,0-.4,0-.6,0-.6.3,0,.7,0,1.3-.2.6-.1,1.2-.3,1.9-.4h0s0,0,0,0h0c0,0,.1,0,.2,0,0,0,0,.1,0,.2v.5c0,0,0,0,0,.1,0,0,0,0,.1,0,.6-.6,1.4-.9,2.4-.9s1.2.3,1.6.9c.4.6.6,1.4.6,2.6v1.7c0,.8,0,1.3.1,1.6,0,0,.1.1.3.2.2,0,.3.1.5.2.2,0,.3,0,.4,0s0,0,0,.1c0,0,0,.2,0,.3s0,.2,0,.2c0,0-.2,0-.4,0-.2,0-.4,0-.7,0-.3,0-.5,0-.7,0-.2,0-.4,0-.6,0s-.4,0-.8,0c-.3,0-.6,0-.9,0-.3,0-.5,0-.6,0,0,0,0-.2,0-.4s0-.3,0-.3c0,0,.2,0,.4,0,.2,0,.3-.1.5-.2.1,0,.2-.1.2-.2,0-.3.1-.8.1-1.3v-1.6c0-.9-.1-1.5-.4-1.8-.2-.4-.6-.5-1.1-.5s-.6,0-.9.2c-.2.1-.3.3-.3.6v2.9c0,.8,0,1.3.1,1.6,0,0,.1.1.2.2.1,0,.3.1.5.2s.3,0,.3,0,0,0,0,.1c0,0,0,.2,0,.3s0,.2,0,.2c0,0-.3,0-.6,0-.3,0-.6,0-.9,0-.3,0-.6,0-.8,0s-.3,0-.6,0c-.2,0-.5,0-.7,0-.3,0-.5,0-.7,0-.2,0-.3,0-.4,0Z"/>
    <path d="M177.1,96.3c-.3,0-.6,0-.8-.3-.2-.2-.3-.4-.3-.6,0-.3.1-.6.4-.8,1.5,0,2.4-.5,2.9-1.4l.5-1.1-2.7-5.9c-.1-.3-.3-.4-.5-.5-.2,0-.4-.1-.6-.1s0,0,0-.3,0-.4,0-.4c0,0,.2,0,.3,0,.2,0,.4,0,.8,0,.3,0,.6,0,.8,0,.2,0,.4,0,.5,0s.4,0,.7,0c.3,0,.6,0,.9,0,.3,0,.5,0,.6,0,0,.1,0,.2,0,.4s0,.3,0,.3c0,0-.2,0-.4,0-.2,0-.3.1-.5.2-.1,0-.2.1-.2.2,0,.2.1.6.4,1.1.2.6.6,1.4,1,2.4.4-.9.7-1.5.9-2,.2-.5.3-.7.4-.8,0-.2.1-.3.1-.5s-.1-.3-.3-.4c-.2-.1-.5-.2-.9-.2s0-.1,0-.3,0-.1,0-.2c0,0,0,0,0-.1,0,0,.3,0,.6,0s.6,0,.9,0c.3,0,.6,0,.8,0s.3,0,.4,0c.2,0,.3,0,.5,0h.9s0,.1,0,.2c0,.2,0,.3,0,.3-.1,0-.3,0-.5,0-.2,0-.4.1-.6.2-.2,0-.3.2-.4.4l-3.2,7c-1,2.1-2.1,3.1-3.4,3.1Z"/>
  </g>
  <g>
    <path d="M41.5,64.9c-.1-.1-.2-.3-.2-.7,0-.5,0-.7.1-.7.3,0,.8,0,1.4-.3.6-.2,1.2-.4,1.7-.7.5-.3.8-.6.8-1l.2-1.8c.3-4.6.4-8.4.5-11.4,0-3,.1-5,.2-6,0-.3,0-.5-.1-.7,0-.2-.3-.3-.7-.4-.4-.1-.8-.2-1.2-.3-.4,0-.7-.1-1-.1s-.2-.3-.2-.8,0-.5.2-.6c.3,0,.6,0,1.2,0,.5,0,1.1,0,1.7.1.6,0,1.1,0,1.5,0s.8,0,1.4,0c.5,0,1.1,0,1.6-.1.5,0,.9,0,1.1,0,.1.4.5,1.2,1,2.4.5,1.2,1.2,2.8,2.2,4.8.9,2,1.7,3.8,2.4,5.3.7,1.5,1.2,2.9,1.7,4h0c0,0,0,0,0,0,1-2.4,1.8-4.6,2.6-6.7.8-2,1.5-3.8,2-5.4l1.3-4.3c.2,0,.6,0,1.1,0,.5,0,1.2,0,2,0l4.8-.2c.1.1.2.3.2.6,0,.5,0,.8-.2.8h0c-.6,0-1.2.2-1.6.5-.4.3-.6.8-.5,1.6l.8,16.1c0,1.5.3,2.7.6,3.5,0,.2.3.3.6.5.3.2.6.3.9.4.3.1.6.2.7.2s.2.3.2.8,0,.4,0,.7c-.2,0-.6,0-1.2,0-.6,0-1.3,0-2-.1-.7,0-1.3,0-1.7,0s-1.1,0-1.9,0c-.8,0-1.5,0-2.2.1-.7,0-1.2,0-1.4,0-.1-.1-.2-.3-.2-.6,0-.5,0-.8.1-.8.2,0,.5,0,.8-.2.3-.1.7-.3,1-.4.3-.2.5-.3.6-.5.2-.4.3-.8.3-1.1s0-.6,0-1c0-.4,0-.8,0-1.3l-.3-9.7c-.1-1.7-.2-2.6-.3-2.6s-.1,0-.2.3l-6.6,16.5c-.1.3-.3.5-.6.8-.3.3-.6.4-.9.4s-.1,0-.3,0l-8.4-18.9-.7,14.7v.9c0,.2,0,.4,0,.5,0,.2.2.3.6.5.3.2.7.3,1.1.5.4.2.8.3,1.2.4.4.1.7.2.8.2s.2.3.2.8,0,.4,0,.7c-1.5,0-2.7,0-3.5,0-.8,0-1.3,0-1.7,0-.3,0-.6,0-.7,0-.2,0-.3,0-.6,0s-.6,0-1.2,0c-.6,0-1.5,0-2.8.2Z"/>
    <path d="M75.8,64.9c-.1-.1-.2-.3-.2-.6,0-.5,0-.8,0-.8.2,0,.5,0,.9-.2.4-.1.8-.3,1.2-.5.4-.2.6-.4.7-.6.2-.3.4-.7.7-1.1.2-.4.4-.8.5-1.1l.2-.5,8.5-19.4c.3-.7.8-1,1.4-1s.7.2.9.5l7.8,19.4c.2.6.5,1.1.7,1.7.2.5.4,1,.6,1.5.1.3.3.5.7.7.4.2.7.3,1.2.4.4.1.7.2,1,.2s.2.2.2.7,0,.7,0,.8l-2.3-.2c-.7,0-1.4,0-1.9-.1-.5,0-1,0-1.3,0l-5.8.3c-.1-.1-.2-.4-.2-.8s0-.6.2-.6c.6,0,1.1-.1,1.7-.4.6-.2.9-.6.9-1s0-.3-.2-.7c-.1-.4-.4-1.1-.7-1.9l-1.1-2.8c-.1-.1-.2-.2-.3-.2-.3,0-.7,0-1.3,0h-4.6c-.7,0-1.2,0-1.6,0-.1,0-.2,0-.3.2l-1.3,2.9c-.4,1-.7,1.8-.7,2.2,0,.5.2.8.7,1.1.5.2.9.4,1.2.4.3,0,.6,0,.9,0,0,0,.1.2.1.6s0,.6,0,.8c-1.1,0-2-.1-2.5-.2-.5,0-.9,0-1.2,0-.3,0-.5,0-.8,0-.3,0-.8,0-1.4,0-.6,0-1.6,0-2.9.2ZM88,54.3c.5,0,1,0,1.4,0,.4,0,.9,0,1.3,0v-.2c.1,0-2.6-6.8-2.6-6.8l-3,6.8c0,.1,0,.2,0,.2.8,0,1.7.1,2.8.1Z"/>
    <path d="M128.9,64.9c-.3,0-.7-.3-1.2-.9l-15.6-19.4v14.7c0,1.4.1,2.3.3,2.7.2.3.5.5.9.7.5.2.9.4,1.4.5.5.1.9.2,1.1.2s0,.1.1.3c0,.2,0,.4,0,.7s0,.4,0,.5c-1.2,0-2.3,0-3.1-.2-.9-.1-1.5-.2-2-.2s-1.1,0-1.5,0c-.4,0-.8,0-1.2.1-.4,0-1.1.1-2.1.2,0,0-.1-.3-.1-.7s0-.7.1-.7c.6,0,1.2-.1,1.9-.4.7-.2,1.1-.6,1.4-1.1.3-.4.4-1.3.4-2.8v-15c0-1.3-.2-2.2-.6-2.7,0-.1-.3-.2-.7-.3-.4,0-.8-.2-1.3-.2-.4,0-.8,0-1.1,0s0-.1-.1-.3c0-.2,0-.4,0-.7,0-.2,0-.4,0-.4l2.4.2c.6,0,1.1,0,1.6.1.5,0,.9,0,1.2,0s1,0,1.6,0c.6,0,1.3-.1,2.2-.2.5,1,1.2,2.1,2.1,3.4.9,1.2,1.9,2.5,3.1,3.9,1.1,1.4,2.3,2.8,3.5,4.2,1.2,1.5,2.4,2.9,3.5,4.4,0-.1,0-.3,0-.5,0-.3,0-.6,0-1v-9c0-1.5-.2-2.4-.5-2.8-.2-.2-.4-.4-.8-.6-.4-.2-.8-.3-1.2-.4-.4-.1-.7-.2-.9-.2s0-.1-.1-.3c0-.2,0-.4,0-.7s0-.4,0-.4c1.2.1,2.2.2,3,.2.8,0,1.5,0,2,0s1,0,1.6,0c.7,0,1.3-.1,1.9-.2.6,0,1,0,1.2,0,.1.2.2.4.2.7,0,.5,0,.7-.2.7-1.4,0-2.4.4-3.2,1.3-.4.4-.5,1.4-.5,2.8v14.5c0,.5,0,1.1,0,2,0,.9,0,2,.1,3.3-.1.1-.4.2-1,.2Z"/>
    <path d="M137.8,64.9c-.1-.1-.2-.3-.2-.6,0-.5,0-.8.1-.8.2,0,.5,0,.9-.2.4-.1.7-.2,1.1-.4.3-.2.5-.3.6-.4.1-.4.2-.8.2-1.3,0-.5,0-1.1,0-1.8v-14.7c0-1.6-.1-2.6-.3-3,0-.2-.3-.3-.6-.4-.3-.1-.6-.3-1-.4-.3-.1-.6-.2-.8-.2s-.2-.2-.2-.7,0-.7,0-.8h1.8c.6.2,1,.2,1.4.2.4,0,.7,0,1.1,0,.3,0,.8,0,1.3,0s2.3,0,5.4-.2c0,.2.1.5.1.7,0,.5,0,.7-.2.7-.2,0-.4,0-.8.2-.4.1-.7.2-1.1.4-.3.1-.5.3-.6.4,0,.3-.1.7-.2,1.3,0,.5,0,1,0,1.4v14.7c0,.7,0,1.4,0,1.9,0,.6.1,1,.2,1.5,0,.1.2.2.6.4.3.2.7.3,1,.4.4.1.6.2.8.2s.2.2.2.7,0,.5,0,.7c-.1,0-.3,0-.7,0-.4,0-.9,0-1.6-.1-.7,0-1.2,0-1.8-.1-.5,0-.9,0-1.3,0s-1.1,0-1.9,0c-.8,0-1.5,0-2.2.1-.7,0-1.2,0-1.4,0Z"/>
    <path d="M165.2,65c-1.7,0-3.3-.3-4.7-1-1.5-.7-2.8-1.6-3.9-2.7-1.1-1.2-2-2.5-2.6-4-.6-1.5-1-3.1-1-4.8s.3-3.5,1-5.1c.6-1.6,1.5-3,2.7-4.2,1.1-1.2,2.5-2.2,4-2.8,1.5-.7,3.2-1,5-1s2.8,0,4.3.3c1.5.2,2.9.5,4.5.8.2,0,.3.9.5,2.6.1.9.2,1.7.2,2.2,0,.5,0,.9,0,1.1-.1.2-.4.3-.9.3h-.6c-.1-.6-.3-1.1-.6-1.6-.3-.5-.7-1.1-1.3-1.6-.6-.6-1.4-1.1-2.4-1.4-1-.4-2.2-.6-3.4-.6-4.6,0-6.8,3.4-6.8,10.3s.3,4,.9,5.8c.6,1.7,1.5,3.1,2.8,4.1,1.2,1,2.7,1.5,4.4,1.5s3.5-.7,4.9-2.1.7-.9.9-1.4c.2-.5.4-1,.5-1.4.1-.4.2-.6.3-.6,1,0,1.6.1,1.7.4,0,.2,0,.6-.2,1.1-.1.6-.3,1.2-.4,1.9-.2.7-.3,1.3-.5,1.8-.2.5-.3.8-.5.8-2.9,1-5.8,1.6-8.6,1.6Z"/>
    <path d="M192.2,64.9c-2.1,0-3.9-.4-5.4-1.3-1.6-.9-2.8-2.2-3.6-4-.9-1.8-1.3-4.1-1.3-6.8v-8.1c0-1.6-.1-2.6-.3-3,0-.2-.3-.3-.6-.4-.3-.1-.6-.3-1-.4-.3-.1-.6-.2-.8-.2s-.2-.2-.2-.7,0-.7,0-.8l5.5.2c.3,0,.8,0,1.7,0,.9,0,2.1-.1,3.6-.2,0,.2.1.5.1.7,0,.5,0,.7-.2.7-.2,0-.4,0-.8.2-.4.1-.7.2-1.1.4-.3.1-.5.3-.6.4-.2.6-.3,1.7-.3,3.3v9.1c0,2.3.5,4.2,1.6,5.7,1.1,1.4,2.5,2.1,4.3,2.1s3.4-.6,4.6-1.9c1.2-1.2,1.8-3.3,1.8-6.2v-9.1c0-1.5-.2-2.4-.5-2.8-.2-.2-.4-.4-.8-.6-.4-.2-.8-.3-1.2-.4-.4-.1-.7-.2-.9-.2s0-.1-.1-.3c0-.2,0-.4,0-.7s0-.4,0-.4c1.2.1,2.2.2,3,.2.8,0,1.5,0,2,0s1,0,1.6,0c.7,0,1.3-.1,1.9-.2.6,0,1,0,1.2,0,.1.2.2.4.2.7,0,.5,0,.7-.2.7-1.4,0-2.4.4-3.2,1.3-.4.4-.5,1.4-.5,2.8v8.7c0,2.5-.4,4.6-1.2,6.2-.8,1.7-2,3-3.5,3.8-1.5.9-3.2,1.3-5.1,1.3Z"/>
    <path d="M233,65c-1.2,0-2.4-.1-3.4-.4-1-.2-1.9-.5-2.5-.8-.6-.3-1.3-.8-1.9-1.4s-.6-.6-.8-.9c-.3-.3-.5-.6-.8-1.1-.3-.4-.7-1-1.1-1.7-.5-.7-1.1-1.6-1.8-2.8-1-1.5-1.7-2.3-2-2.4,0,0-.2,0-.4,0s-.3.2-.3.6v5.2c0,1.4,0,2.4.3,3.1,0,.2.3.4.7.5s.8.3,1.3.3.8.1,1.1.1.2.2.2.7,0,.5,0,.7c-1.5,0-2.8-.1-3.7-.2-1,0-1.7,0-2.1,0l-5.6.2c-.1-.1-.2-.3-.2-.7,0-.5,0-.8.2-.8.2,0,.5,0,.9-.1s.7-.2,1.1-.3c.3-.1.5-.3.6-.4.2-.6.2-1.7.2-3.4v-14.5c0-1.4,0-2.4-.2-3,0-.2-.2-.3-.6-.5-.3-.2-.7-.3-1.1-.4-.4-.1-.7-.2-.9-.2s-.2-.2-.2-.7,0-.7.1-.7c1.2,0,2.2,0,3.2.1.9,0,1.8,0,2.5,0,1.2,0,2.2,0,2.9,0h2.5c1,0,2,.1,3.1.4,1,.3,2,.6,2.9,1.2.9.5,1.6,1.2,2.1,2,.5.8.8,1.8.8,2.9s-.2,2.2-.7,3.1c-.5,1-1.1,1.8-1.8,2.4-.7.7-1.5,1.1-2.2,1.4-.2,0-.2.2-.1.4.6.9,1,1.7,1.3,2.1.3.5.6.9.8,1.2.2.3.5.7.8,1.1.3.4.7,1.1,1.3,1.9.4.6.9,1.2,1.5,1.8.6.6,1.2,1.1,2,1.5.7.4,1.4.6,2,.6.1.1.2.3.2.7s0,.6-.2.8c-.2,0-.4,0-.6,0-.2,0-.5,0-.7,0ZM219.5,51.4h1c1,0,1.8-.4,2.3-1.3.5-.9.8-2,.8-3.4,0-3.4-1.2-5.1-3.6-5.1s-1.5.1-1.8.3c-.3.2-.5,1.5-.5,3.7v4.1c0,.7.1,1.2.4,1.4.3.2.7.3,1.2.3Z"/>
    <path d="M237.9,64.9c-.1-.1-.2-.3-.2-.7,0-.5,0-.8.2-.8.2,0,.5,0,.9-.1s.7-.2,1.1-.3c.3-.1.5-.3.6-.4.2-.6.2-1.7.2-3.4v-14.5c0-1.4,0-2.4-.2-3,0-.2-.2-.3-.6-.5-.3-.2-.7-.3-1.1-.4-.4-.1-.7-.2-.9-.2s-.2-.2-.2-.7,0-.7.1-.7c1,0,2,0,2.9.1.9,0,1.8,0,2.7,0s3.1,0,5.9-.1c1.4,0,2.7,0,3.7,0,1.1,0,2,0,2.7,0,0,.1.1.7.3,1.6.2.9.4,2.3.8,4.1-.1.1-.4.2-.9.2s-.5,0-.5-.3c-.3-.7-.8-1.3-1.4-1.8-.6-.5-1.2-.9-2-1.3-.7-.3-1.4-.5-2-.5h-1.5c-1.6,0-2.5.2-2.5.5,0,.3,0,.7-.1,1.2,0,.5,0,1.1,0,1.8v5.9c0,.2.5.2,1.6.2h2c1.6,0,2.5,0,2.6-.2.1-.1.2-.5.3-1.1,0-.4.1-.8.2-1.1,0-.2.2-.3.6-.3s.7,0,.8.2v7.2c-.1.1-.4.2-.8.2s-.5-.1-.6-.3c-.3-1-.5-1.6-.6-1.8-.1-.2-.2-.3-.2-.2,0,0-.1,0-.2-.1-.4-.2-1.4-.3-3-.3s-2.8.1-2.8.3v5.9c0,1.2.1,2.1.3,2.7.1.4,1,.6,2.6.6h1c1.6,0,3-.3,4.3-1,.4-.2.9-.7,1.5-1.3.5-.6,1-1.4,1.3-2.1,0-.2.2-.2.5-.2.6,0,1,0,1.1.2-1.3,3.5-2,5.7-2.1,6.6-.6,0-1.5,0-2.5,0-1,0-2.3,0-3.7,0-1.4,0-2.7,0-3.8,0-1.1,0-2.2,0-3.1,0l-5.6.2Z"/>
  </g>
  <rect x="45.1" y="28.8" width="212.7" height=".5"/>
  <rect x="109.7" y="24.1" width="82.1" height=".5"/>
  <rect x="109.7" y="78.7" width="82.1" height=".5"/>
  <rect x="45.1" y="74" width="212.7" height=".5"/>
</svg>