<?xml version="1.0" encoding="UTF-8"?>
<svg id="Capa_1" xmlns="http://www.w3.org/2000/svg" version="1.1" viewBox="0 0 300 99.8">
  <!-- Generator: Adobe Illustrator 30.1.0, SVG Export Plug-In . SVG Version: 2.1.1 Build 136)  -->
  <path d="M25.4,63.7h-7.6l-8.8-12.4-2.8,2.9v9.5H.3v-28.4h5.8v11.7l11-11.7h7.7l-11.7,11.7,12.2,16.7Z"/>
  <path d="M48.5,51.3h-13.8v7.3h15.7v5.1h-21.5v-28.4h20.9v5h-15v6h13.8v4.9Z"/>
  <path d="M53,35.3h6.3l6.2,21.6,6.2-21.6h6.2l-9.7,28.4h-5.6l-9.6-28.4Z"/>
  <path d="M81,35.3h5.9v28.4h-5.9v-28.4Z"/>
  <path d="M115.4,63.7h-5.9l-11.6-20.2v20.2h-5.5v-28.4h6.2l11.3,19.9v-19.9h5.5v28.4Z"/>
  <path d="M120.4,58h5.8v5.7h-5.8v-5.7Z"/>
  <path d="M137.3,63.7h-5.5v-28.4h8.6l5.2,22.4,5.1-22.4h8.5v28.4h-5.5v-19.2c0-.6,0-1.3,0-2.3,0-1,0-1.8,0-2.3l-5.4,23.9h-5.8l-5.3-23.9c0,.5,0,1.3,0,2.3,0,1,0,1.8,0,2.3v19.2Z"/>
  <path d="M181.6,52.8v-17.5h6v17.5c0,3-.5,5.4-1.4,7.1-1.7,3.1-5.1,4.6-10,4.6s-8.3-1.5-10-4.6c-.9-1.7-1.4-4-1.4-7.1v-17.5h6v17.5c0,2,.2,3.4.7,4.3.7,1.6,2.3,2.4,4.7,2.4s4-.8,4.7-2.4c.5-.9.7-2.3.7-4.3Z"/>
  <path d="M205.4,52.6h-6.1v11.2h-5.8v-28.4h13.9c2,0,3.5.3,4.6.7,1.1.5,2,1.1,2.7,2,.6.7,1.1,1.5,1.5,2.4s.5,1.9.5,3-.3,2.7-1,4-1.8,2.2-3.4,2.8c1.3.5,2.2,1.3,2.8,2.2s.8,2.5.8,4.4v1.9c0,1.3,0,2.2.2,2.6.2.7.5,1.3,1.1,1.6v.7h-6.5c-.2-.6-.3-1.1-.4-1.5-.2-.8-.2-1.6-.3-2.5v-2.6c0-1.8-.4-3-1-3.6s-1.8-.9-3.6-.9ZM209,47.4c1.2-.5,1.8-1.6,1.8-3.2s-.6-2.9-1.7-3.5c-.6-.3-1.6-.5-2.9-.5h-6.9v7.6h6.7c1.3,0,2.3-.2,3-.5Z"/>
  <path d="M234,53.5h-6v10.2h-5.9v-28.4h12.4c2.9,0,5.1.7,6.8,2.2,1.7,1.5,2.5,3.7,2.5,6.8s-.8,5.7-2.5,7.1-4.1,2.1-7.3,2.1ZM236.7,47.6c.8-.7,1.2-1.8,1.2-3.2s-.4-2.5-1.2-3.2c-.8-.6-1.9-.9-3.3-.9h-5.5v8.4h5.5c1.4,0,2.5-.3,3.3-1Z"/>
  <path d="M265.2,63.7v-12.7h-11.1v12.7h-5.9v-28.4h5.9v10.8h11.1v-10.8h5.9v28.4h-5.9Z"/>
  <path d="M299.7,35.3l-9.5,17.7v10.7h-5.9v-10.7l-9.8-17.7h7l5.9,12.4,5.7-12.4h6.7Z"/>
</svg>