<?xml version="1.0" encoding="UTF-8"?>
<svg id="Capa_1" xmlns="http://www.w3.org/2000/svg" version="1.1" viewBox="0 0 300 99.8">
  <!-- Generator: Adobe Illustrator 30.1.0, SVG Export Plug-In . SVG Version: 2.1.1 Build 136)  -->
  <path d="M99.7,48.5v5.2h14.4c-.2,2.1-.8,4-1.6,5.5-1.2,2.2-2.8,3.8-4.9,4.9-2.1,1.1-4.7,1.7-7.6,1.7s-5.4-.7-7.7-2c-2.2-1.4-4-3.2-5.3-5.6-1.3-2.4-2-5.2-2-8.3s.6-5.9,1.9-8.3c1.3-2.4,3.1-4.3,5.5-5.6,2.3-1.4,5-2,8.1-2s4.9.5,7.1,1.5c2.2,1,3.9,2.5,5.2,4.4l3.9-3.9c-1.9-2.4-4.2-4.2-7-5.5-2.8-1.3-5.9-1.9-9.2-1.9s-5.8.5-8.4,1.6c-2.6,1.1-4.8,2.6-6.7,4.6-1.9,2-3.4,4.2-4.5,6.8s-1.6,5.4-1.6,8.4.5,5.8,1.6,8.4c1.1,2.6,2.6,4.9,4.5,6.8,1.9,2,4.1,3.5,6.7,4.6,2.5,1.1,5.3,1.6,8.2,1.6s7.3-.8,10.3-2.5c3-1.6,5.4-4.1,7.1-7.3,1.7-3.3,2.5-7.3,2.5-12.1v-.8h-20.4Z"/>
  <polygon points="152.6 29.1 152.6 46.6 132.4 46.6 132.4 29.1 127 29.1 127 70.7 132.4 70.7 132.4 51.7 152.6 51.7 152.6 70.7 158 70.7 158 29.1 152.6 29.1"/>
  <polygon points="172.3 65.5 172.3 51.9 189.5 51.9 189.5 46.9 172.3 46.9 172.3 34.2 190.9 34.2 190.9 29.1 172.3 29.1 170.7 29.1 167.4 29.1 167.4 70.7 170.7 70.7 172.3 70.7 191.2 70.7 191.2 65.5 172.3 65.5"/>
  <path d="M217.2,48.5v5.2h14.4c-.2,2.1-.8,4-1.6,5.5-1.2,2.2-2.8,3.8-4.9,4.9-2.1,1.1-4.7,1.7-7.6,1.7s-5.4-.7-7.7-2c-2.2-1.4-4-3.2-5.3-5.6-1.3-2.4-2-5.2-2-8.3s.6-5.9,1.9-8.3c1.3-2.4,3.1-4.3,5.5-5.6,2.3-1.4,5-2,8.1-2s4.9.5,7.1,1.5c2.2,1,3.9,2.5,5.2,4.4l3.9-3.9c-1.9-2.4-4.2-4.2-7-5.5-2.8-1.3-5.9-1.9-9.2-1.9s-5.8.5-8.4,1.6c-2.6,1.1-4.8,2.6-6.7,4.6-1.9,2-3.4,4.2-4.5,6.8s-1.6,5.4-1.6,8.4.5,5.8,1.6,8.4c1.1,2.6,2.6,4.9,4.5,6.8,1.9,2,4.1,3.5,6.7,4.6,2.5,1.1,5.3,1.6,8.2,1.6s7.3-.8,10.3-2.5c3-1.6,5.4-4.1,7.1-7.3,1.7-3.3,2.5-7.3,2.5-12.1v-.8h-20.4Z"/>
  <path d="M263.4,48.5v5.2h14.4c-.2,2.1-.8,4-1.6,5.5-1.2,2.2-2.8,3.8-4.9,4.9-2.1,1.1-4.7,1.7-7.6,1.7s-5.4-.7-7.7-2c-2.2-1.4-4-3.2-5.3-5.6-1.3-2.4-2-5.2-2-8.3s.6-5.9,1.9-8.3c1.3-2.4,3.1-4.3,5.5-5.6,2.3-1.4,5-2,8.1-2s4.9.5,7.1,1.5c2.2,1,3.9,2.5,5.2,4.4l3.9-3.9c-1.9-2.4-4.2-4.2-7-5.5-2.8-1.3-5.9-1.9-9.2-1.9s-5.8.5-8.4,1.6c-2.6,1.1-4.8,2.6-6.7,4.6-1.9,2-3.4,4.2-4.5,6.8s-1.6,5.4-1.6,8.4.5,5.8,1.6,8.4c1.1,2.6,2.6,4.9,4.5,6.8,1.9,2,4.1,3.5,6.7,4.6,2.5,1.1,5.3,1.6,8.2,1.6s7.3-.8,10.3-2.5c3-1.6,5.4-4.1,7.1-7.3,1.7-3.3,2.5-7.3,2.5-12.1v-.8h-20.4Z"/>
  <path d="M291.1,70.7V29.1h5.6v41.6h-5.6Z"/>
  <polygon points="3.2 29 8.9 29 21.5 59.6 33.9 29 39.8 29 21.7 72.2 3.2 29"/>
  <path d="M70,70.7h5.6l-20.1-43.2-19.1,43.2h5.9l4.7-10.8h17.8l5,10.8ZM49.3,55l6.5-14.8,6.9,14.8h-13.4Z"/>
</svg>