<?xml version="1.0" encoding="UTF-8"?>
<svg id="Capa_1" xmlns="http://www.w3.org/2000/svg" version="1.1" viewBox="0 0 300 99.8">
  <!-- Generator: Adobe Illustrator 30.1.0, SVG Export Plug-In . SVG Version: 2.1.1 Build 136)  -->
  <path d="M29.6,73.2l4.3,3.8-4.3,4v1.1l5-4.6v-1.1l-5-4.4v1.1ZM35.5,73.2l4.3,3.8-4.3,4v1.1l5-4.6v-1.1l-5-4.4v1.1Z"/>
  <path d="M103.8,32.2c3.7,0,6.6,1.1,8.6,3,1.1,1.1,1.7,2.5,2,3.9h-21.2c1.4-4.2,5.3-7,10.6-7M92.9,44.8h27.7s.1-1.9.1-3.1c0-3.9-1.4-7.4-3.9-10.1-2.1-2.3-6.2-5-13.2-5s-17.1,5.5-17.1,15.7,1.5,8.6,4.2,11.3c3,3,7.3,4.5,12.9,4.4h2.3s.2-5.7.2-5.7c0,0-2.6,0-2.6,0-6.3,0-9.7-2.6-10.6-7.6"/>
  <path d="M148.4,52.3c-7.8,0-11.3-5.2-11.3-10s4.1-10.1,11.3-10.1,10.7,5.5,10.7,10.1c0,4.9-2.8,10-10.7,10M165.1,42.3c0-9.3-6.9-15.7-16.7-15.7s-8.5,1.3-11.3,3.6v-12.9h-5.9v33h2.5c2.6,4.7,8,7.7,14.8,7.7,9.8,0,16.7-6.4,16.7-15.6"/>
  <path d="M194.9,26.6h-2.2c-9.4-.3-13.2,3.8-14.8,6.8h-2.3v23.9h5.9v-16.8c0-2.2.8-4.3,2.4-5.8,1.9-1.9,4.9-2.8,8.6-2.6h2.4c0,0,0-5.6,0-5.6h0Z"/>
  <path d="M264.4,44.7c0,3.8-3.9,7.6-11.3,7.6s-7.5-1.3-7.5-3.6,1.3-4,8.1-4.4h3c2.9-.2,5.6-.4,7.8-.9v1.3h0ZM256.9,26.6h-.4s-2.1.2-2.1.2v5.6c-.1,0,2.6-.2,2.6-.2,7.5,0,7.5,2.7,7.5,4.8s-1.4,1.4-9,1.7h-2c-3.8.3-13.8.8-13.8,10s5.2,9.2,13.6,9.2,10-1.7,13-4.5l.9-.8s.6-.6.9-1.1h2.3v-15.4c-.1-3.6-2-9.6-13.5-9.6"/>
  <path d="M225.1,50l12.3-23.4h-7.4l-8.2,17.1h-.1l-8.4-17.1h-7.8l12.2,22.8-.5,1.1c-.9,1.9-1.7,3.2-5,3.2s-2.3-.2-3.4-.3v4.2c1.6.2,3.3.3,4.9.3,7.4,0,9.1-3.7,11.4-7.8"/>
  <rect x="29.6" y="17.2" width="5.9" height="40.1"/>
  <path d="M76.5,57.3v-19.3c0-7-5.6-11.5-14.3-11.5s-11.3,2.7-13.5,6.9h-2.4v23.8h5.9v-16.8c0-3.9,2.6-8.4,10-8.4s8.4.8,8.4,6.1v19.1h5.9Z"/>
  <g>
    <path d="M268.5,79.4c0,0,0-.1,0-.2.5-.4,1-.8,1.3-1.4.3-.6.5-1.2.5-1.9,0-1.1-.4-2-1.2-2.7-.8-.7-1.7-1.1-2.8-1.1h-2.5c0,0-.2,0-.2,0,0,0-.1.1-.1.2v9.4c0,0,0,.2.1.2,0,0,.1,0,.2,0h.6c0,0,.2,0,.2,0,0,0,0-.1,0-.2v-1.9c0,0,0-.1.1-.1h1.5c.2,0,.5,0,.7,0,0,0,0,0,.1,0l1.4,2.2c0,.1.2.2.3.2h.7c.1,0,.2,0,.3-.2,0-.1,0-.2,0-.3l-1.4-2.3ZM268.3,77.9c-.5.5-1.1.7-1.8.7h-1.4c0,0-.1,0-.1-.1v-5c0,0,0-.1.1-.1h1.5c.7,0,1.4.3,1.9.8.5.5.7,1.2.7,2,0,.7-.3,1.3-.8,1.7Z"/>
    <path d="M259.9,72.1h-.6c0,0-.2,0-.2,0,0,0,0,.1,0,.2v9.4c0,0,0,.2,0,.2,0,0,.1,0,.2,0h.6c0,0,.2,0,.2,0,0,0,0-.1,0-.2v-9.4c0,0,0-.2,0-.2,0,0-.1,0-.2,0Z"/>
    <path d="M252.1,72.3c0-.2-.2-.3-.4-.3h-.6c-.2,0-.3,0-.4.3l-3.5,9.4c0,.1,0,.2,0,.3,0,0,.2.1.3.1h.6c.2,0,.3,0,.3-.2l.5-1.3c0-.1.2-.2.3-.2h4.3c.2,0,.3,0,.3.2l.5,1.3c0,.1.1.2.3.2h.7c.1,0,.2,0,.3-.1,0,0,0-.2,0-.3l-3.5-9.4ZM253.2,79.1s0,0-.1,0h-3.4s0,0-.1,0,0,0,0-.1l1.7-4.6c0,0,0-.1.1-.1s.1,0,.1.1l1.7,4.6s0,0,0,.1Z"/>
    <path d="M243.9,72.1h-.6c0,0-.2,0-.2,0,0,0,0,.1,0,.2v4.5c0,0,0,.1,0,.1h-5.1c0,0-.1,0-.1-.1v-4.5c0,0,0-.2,0-.2,0,0-.1,0-.2,0h-.6c0,0-.2,0-.2,0,0,0,0,.1,0,.2v9.4c0,0,0,.2,0,.2,0,0,.1,0,.2,0h.6c0,0,.2,0,.2,0,0,0,0-.1,0-.2v-3.4c0,0,0-.1.1-.1h5.1c0,0,0,0,0,.1v3.4c0,0,0,.2,0,.2,0,0,.1,0,.2,0h.6c0,0,.2,0,.2,0,0,0,0-.1,0-.2v-9.4c0,0,0-.2,0-.2,0,0-.1,0-.2,0Z"/>
    <path d="M225.7,72.1h-5.8c0,0-.2,0-.2,0,0,0,0,.1,0,.2v9.4c0,0,0,.2,0,.2,0,0,.1,0,.2,0h.6c0,0,.2,0,.2,0,0,0,0-.1,0-.2v-3.6c0,0,0-.1.1-.1h2.9c0,0,.2,0,.2,0,0,0,0-.1,0-.2v-.6c0,0,0-.2,0-.2,0,0-.1,0-.2,0h-2.9c0,0-.1,0-.1-.1v-3.4c0,0,0-.1.1-.1h4.8c0,0,.2,0,.2,0,0,0,.1-.1.1-.2v-.6h0c0,0,0-.2-.1-.2,0,0-.1,0-.2,0Z"/>
    <path d="M214.6,72.7c-.7-.5-1.5-.7-2.3-.7s-1.6.2-2.3.7c-.7.5-1.3,1.1-1.7,1.9-.4.8-.6,1.7-.6,2.6s.2,1.8.6,2.6c.4.8,1,1.4,1.7,1.9.7.5,1.5.7,2.3.7s1.6-.2,2.3-.7c.7-.5,1.3-1.1,1.7-1.9.4-.8.6-1.6.6-2.6s-.2-1.8-.6-2.6c-.4-.8-1-1.4-1.7-1.9ZM214.7,79.9c-.7.8-1.4,1.1-2.3,1.1s-1.7-.4-2.3-1.1c-.7-.8-1-1.7-1-2.8,0-.7.1-1.4.4-2,.3-.6.7-1.1,1.2-1.4.5-.3,1.1-.5,1.7-.5.9,0,1.7.4,2.3,1.1.7.8,1,1.7,1,2.8s-.3,2-1,2.8Z"/>
    <path d="M197.5,72.1h-5.7c0,0-.2,0-.2,0,0,0,0,.1,0,.2v9.4c0,0,0,.2,0,.2,0,0,.1,0,.2,0h5.7c0,0,.2,0,.2,0,0,0,0-.1,0-.2v-.6c0,0,0-.2,0-.2,0,0-.1,0-.2,0h-4.6c0,0-.1,0-.1-.1v-2.7c0,0,0,0,.1,0h2.9c0,0,.2,0,.2-.1,0,0,0-.1,0-.2v-.6c0,0,0-.2,0-.2,0,0-.1-.1-.2-.1h-2.9c0,0-.1,0-.1,0v-3.2c0,0,0-.1.1-.1h4.6c0,0,.2,0,.2,0,0,0,0-.1,0-.2v-.6c0,0,0-.2,0-.2,0,0-.1,0-.2,0Z"/>
    <path d="M188.7,78.8c0-.2-.2-.4-.3-.6-.1-.2-.2-.3-.4-.5-.2-.2-.3-.3-.5-.4-.1,0-.3-.2-.6-.3-.2-.1-.4-.2-.6-.3-.1,0-.3-.1-.6-.2-.8-.3-1.3-.5-1.6-.8-.3-.2-.5-.5-.5-.9,0,0,0,0,0-.2,0,0,0-.2.1-.4,0-.2.1-.3.3-.5.1-.1.3-.3.5-.4.2-.1.5-.2.9-.2,1,0,1.7.3,2.1,1.1,0,0,0,.1.2.1s.2,0,.2,0l.5-.3c0,0,.1-.1.2-.2,0,0,0-.2,0-.3-.7-1.2-1.8-1.8-3.3-1.7-.4,0-.8.1-1.2.3-.4.1-.6.3-.9.5-.2.2-.4.5-.5.7-.1.3-.2.5-.3.8,0,.3,0,.5,0,.7,0,.2,0,.5.1.7,0,.2.2.4.3.6,0,.2.2.3.4.5.2.1.3.3.5.4.1,0,.3.2.6.3.2.1.4.2.5.2.1,0,.3.1.6.2.8.3,1.4.6,1.7.8.3.2.5.6.5,1,0,.5-.1.9-.5,1.2-.4.3-.8.4-1.3.5-1.1,0-1.9-.4-2.3-1.4,0,0,0-.1-.2-.2,0,0-.2,0-.2,0l-.6.2c0,0-.2,0-.2.2,0,0,0,.2,0,.3.3.8.7,1.4,1.4,1.8.6.4,1.3.6,2.2.6.5,0,1-.2,1.5-.4.5-.2.8-.6,1.1-1,.3-.5.4-1,.4-1.6,0-.3,0-.5-.1-.7Z"/>
    <path d="M179.3,72.1h-.6c0,0-.1,0-.2,0,0,0,0,0-.1.1,0,0,0,.1,0,.2v6.8c0,0,0,0,0,.1,0,0,0,0-.1,0l-5.5-7.1c0,0-.2-.1-.3-.1h-.3c0,0-.1,0-.2,0,0,0,0,0-.1.1,0,0,0,.1,0,.2v9.4c0,0,0,.2,0,.2,0,0,.1.1.2.1h.6c0,0,.2,0,.2-.1,0,0,0-.1,0-.2v-6.7s0,0,0,0c0,0,0,0,.1,0l5.4,7c0,0,.2.1.3.1h.3c0,0,.2,0,.2-.1,0,0,0-.1,0-.2v-9.4c0,0,0-.2,0-.2,0,0-.1,0-.2,0Z"/>
    <path d="M168.3,72.1h-5.7c0,0-.2,0-.2,0,0,0,0,.1,0,.2v9.4c0,0,0,.2,0,.2,0,0,.1,0,.2,0h5.7c0,0,.2,0,.2,0,0,0,0-.1,0-.2v-.6c0,0,0-.2,0-.2,0,0-.1,0-.2,0h-4.6c0,0-.1,0-.1-.1v-2.7c0,0,0,0,.1,0h2.9c0,0,.2,0,.2-.1,0,0,0-.1,0-.2v-.6c0,0,0-.2,0-.2,0,0-.1-.1-.2-.1h-2.9c0,0-.1,0-.1,0v-3.2c0,0,0-.1.1-.1h4.6c0,0,.2,0,.2,0,0,0,0-.1,0-.2v-.6c0,0,0-.2,0-.2s-.1,0-.2,0Z"/>
    <path d="M159.5,78.8c0-.2-.2-.4-.3-.6-.1-.2-.2-.3-.4-.5-.2-.2-.3-.3-.5-.4-.1,0-.3-.2-.6-.3-.2-.1-.4-.2-.6-.3-.1,0-.3-.1-.6-.2-.8-.3-1.3-.5-1.6-.8-.3-.2-.5-.5-.5-.9,0,0,0,0,0-.2,0,0,0-.2.1-.4,0-.2.1-.3.3-.5.1-.1.3-.3.5-.4.2-.1.5-.2.9-.2,1,0,1.7.3,2.1,1.1,0,0,0,.1.2.1,0,0,.2,0,.2,0l.5-.3c0,0,.1-.1.2-.2,0,0,0-.2,0-.3-.7-1.2-1.8-1.8-3.3-1.7-.4,0-.8.1-1.2.3-.4.1-.6.3-.9.5-.2.2-.4.5-.5.7-.1.3-.2.5-.3.8,0,.3,0,.5,0,.7,0,.2,0,.5.1.7,0,.2.2.4.3.6,0,.2.2.3.4.5.2.1.3.3.5.4.1,0,.3.2.6.3.2.1.4.2.5.2s.3.1.6.2c.8.3,1.4.6,1.7.8.3.2.5.6.5,1,0,.5-.1.9-.5,1.2-.4.3-.8.4-1.3.5-1.1,0-1.9-.4-2.3-1.4,0,0,0-.1-.2-.2,0,0-.2,0-.2,0l-.6.2c0,0-.2,0-.2.2,0,0,0,.2,0,.3.3.8.7,1.4,1.3,1.8.6.4,1.3.6,2.2.6.5,0,1-.2,1.5-.4.5-.2.8-.6,1.1-1s.4-1,.4-1.6c0-.3,0-.5-.1-.7Z"/>
    <path d="M142.8,72.1h-.6c0,0-.1,0-.2,0,0,0,0,0-.1.1,0,0,0,.1,0,.2v6.8c0,0,0,0,0,.1,0,0,0,0-.1,0l-5.5-7.1c0,0-.2-.1-.3-.1h-.3c0,0-.1,0-.2,0,0,0,0,0-.1.1,0,0,0,.1,0,.2v9.4c0,0,0,.2,0,.2,0,0,.1.1.2.1h.6c0,0,.2,0,.2-.1,0,0,0-.1,0-.2v-6.7s0,0,0,0c0,0,0,0,.1,0l5.4,7c0,0,.2.1.3.1h.3c0,0,.2,0,.2-.1,0,0,0-.1,0-.2v-9.4c0,0,0-.2,0-.2,0,0-.1,0-.2,0Z"/>
    <path d="M129.2,72.3c0-.2-.2-.3-.4-.3h-.6c-.2,0-.3,0-.4.3l-3.5,9.4c0,.1,0,.2,0,.3,0,0,.2.1.3.1h.6c.2,0,.3,0,.3-.2l.5-1.3c0-.1.2-.2.3-.2h4.3c.2,0,.3,0,.3.2l.5,1.3c0,.1.1.2.3.2h.7c.1,0,.2,0,.3-.1s0-.2,0-.3l-3.5-9.4ZM130.3,79.1s0,0-.1,0h-3.4s0,0-.1,0c0,0,0,0,0-.1l1.7-4.6c0,0,0-.1.1-.1s.1,0,.1.1l1.7,4.6s0,0,0,.1Z"/>
    <path d="M120.5,72.1h-.6c0,0-.2,0-.2,0,0,0,0,.1,0,.2v9.4c0,0,0,.2,0,.2,0,0,.1,0,.2,0h.6c0,0,.2,0,.2,0s0-.1,0-.2v-9.4c0,0,0-.2,0-.2,0,0-.1,0-.2,0Z"/>
    <path d="M115.9,80.9h-4.3c0,0-.1,0-.1-.1v-8.4c0,0,0-.2,0-.2,0,0-.1,0-.2,0h-.6c0,0-.2,0-.2,0,0,0,0,.1,0,.2v9.4h0c0,0,0,.2,0,.2,0,0,.1,0,.2,0h5.4c0,0,.2,0,.2,0,0,0,.1-.1.1-.2v-.6c0,0,0-.2-.1-.2,0,0-.1,0-.2,0Z"/>
    <path d="M104,72.3c0-.2-.2-.3-.4-.3h-.6c-.2,0-.3,0-.4.3l-3.5,9.4c0,.1,0,.2,0,.3,0,0,.2.1.3.1h.6c.2,0,.3,0,.3-.2l.5-1.3c0-.1.2-.2.3-.2h4.3c.2,0,.3,0,.3.2l.5,1.3c0,.1.1.2.3.2h.7c.1,0,.2,0,.3-.1s0-.2,0-.3l-3.5-9.4ZM105.1,79.1s0,0-.1,0h-3.4s0,0-.1,0c0,0,0,0,0-.1l1.7-4.6c0,0,0-.1.1-.1s.1,0,.1.1l1.7,4.6s0,0,0,.1Z"/>
    <path d="M97.5,72.1s-.1,0-.2,0h-6.5c0,0-.2,0-.2,0,0,0,0,.1,0,.2v.6c0,0,0,.2,0,.2s.1,0,.2,0h2.3c0,0,.2,0,.2,0,0,0,0,.1,0,.2v8.2c0,0,0,.1,0,.2,0,0,0,0,.1.1,0,0,.1,0,.2,0h.6c0,0,.2,0,.2,0,0,0,0-.1,0-.2v-8.2c0,0,0-.2,0-.2,0,0,.1,0,.2,0h2.3c0,0,.2,0,.2,0,0,0,0-.1,0-.2v-.6c0,0,0-.1,0-.2,0,0,0,0-.1-.1Z"/>
    <path d="M86.8,72.1h-.6c0,0-.2,0-.2,0,0,0,0,.1,0,.2v9.4c0,0,0,.2,0,.2,0,0,.1,0,.2,0h.6c0,0,.2,0,.2,0,0,0,0-.1,0-.2v-9.4c0,0,0-.2,0-.2,0,0-.1,0-.2,0Z"/>
    <path d="M74.9,72.1h-5.7c0,0-.2,0-.2,0,0,0,0,.1,0,.2v9.4c0,0,0,.2,0,.2,0,0,.1,0,.2,0h5.7c0,0,.2,0,.2,0s0-.1,0-.2v-.6c0,0,0-.2,0-.2,0,0-.1,0-.2,0h-4.6c0,0-.1,0-.1-.1v-2.7c0,0,0,0,.1,0h2.9c0,0,.2,0,.2-.1,0,0,0-.1,0-.2v-.6c0,0,0-.2,0-.2,0,0-.1-.1-.2-.1h-2.9c0,0-.1,0-.1,0v-3.2c0,0,0-.1.1-.1h4.6c0,0,.2,0,.2,0,0,0,0-.1,0-.2v-.6c0,0,0-.2,0-.2,0,0-.1,0-.2,0Z"/>
    <path d="M65.2,72.1h-.6c0,0-.2,0-.2,0,0,0,0,.1,0,.2v4.5c0,0,0,.1,0,.1h-5.1c0,0-.1,0-.1-.1v-4.5c0,0,0-.2,0-.2,0,0-.1,0-.2,0h-.6c0,0-.2,0-.2,0,0,0,0,.1,0,.2v9.4c0,0,0,.2,0,.2,0,0,.1,0,.2,0h.6c0,0,.2,0,.2,0,0,0,0-.1,0-.2v-3.4c0,0,0-.1.1-.1h5.1c0,0,0,0,0,.1v3.4c0,0,0,.2,0,.2,0,0,.1,0,.2,0h.6c0,0,.2,0,.2,0,0,0,0-.1,0-.2v-9.4c0,0,0-.2,0-.2,0,0-.1,0-.2,0Z"/>
    <path d="M54.9,72.1s-.1,0-.2,0h-6.5c0,0-.2,0-.2,0,0,0,0,.1,0,.2v.6c0,0,0,.2,0,.2,0,0,.1,0,.2,0h2.3c0,0,.2,0,.2,0,0,0,0,.1,0,.2v8.2c0,0,0,.1,0,.2,0,0,0,0,.1.1,0,0,.1,0,.2,0h.6c0,0,.2,0,.2,0,0,0,0-.1,0-.2v-8.2c0,0,0-.2,0-.2,0,0,.1,0,.2,0h2.3c0,0,.2,0,.2,0,0,0,0-.1,0-.2v-.6c0,0,0-.1,0-.2,0,0,0,0-.1-.1Z"/>
  </g>
</svg>