<?xml version="1.0" encoding="UTF-8"?>
<svg id="Capa_1" xmlns="http://www.w3.org/2000/svg" version="1.1" viewBox="0 0 300 99.8">
  <!-- Generator: Adobe Illustrator 30.1.0, SVG Export Plug-In . SVG Version: 2.1.1 Build 136)  -->
  <polygon points="272.4 68 272.4 72.9 27.6 72.8 27.6 68.1 272.4 68"/>
  <path d="M132.1,5.3c4.1.7,6.4,4.2,7.7,7.8,1,2.8,1.5,5.6,1.8,8.6h-4.6c-.3-2-.7-3.8-1.5-5.6-.5-1-1.1-1.9-1.9-2.6-1.5-1.3-3.6-1.2-5.2,0s-1.4,1.6-1.9,2.6c-.8,1.7-1.5,3.4-1.8,5.3-1,4.9-1,11.5-.7,16.5s.3,3.5.6,5.2,1.1,3.9,2,5.7,1,1.7,1.8,2.4c1.7,1.4,3.9,1.2,5.5-.3s2.7-5.2,3.1-7.9h4.5c-.4,5.1-2.1,12.4-6.7,15.3s-5.8,1.5-8.2-.4-2.1-2-2.9-3.3c-2.4-3.9-3.5-8.2-4-12.8s-.6-13.7,0-19c.5-4.6,1.6-8.9,4.1-12.8s3.5-4.2,6.3-4.7h1.8Z"/>
  <path d="M44.1,5.3c1.4.3,2.7.8,3.8,1.8,2.2,1.8,3.4,4.5,4.3,7.2.7,2.4,1.2,4.8,1.4,7.4h-4.6c-.2-1.8-.6-3.4-1.2-5-.5-1.1-1.1-2.2-2-3-1.5-1.4-3.6-1.4-5.2-.2s-1.4,1.4-1.8,2.3c-1.1,2.1-1.9,4.3-2.3,6.6s-.7,5.4-.7,8.2v3.5c0,2.7.2,5.2.6,7.9s1.3,5.3,2.7,7.7.9,1.2,1.5,1.6c1.5,1.2,3.5,1.1,4.9,0,.9-.7,1.5-1.6,2-2.7.8-1.8,1.2-3.6,1.5-5.6h4.5c-.2,2.6-.7,5-1.4,7.4-.9,2.9-2.4,5.9-4.9,7.6-2.7,1.9-6.1,1.8-8.6-.3s-2.2-2.2-3.1-3.7c-2.7-4.7-3.7-9.9-4-15.3s-.3-8.6,0-13,1.3-10.8,4.1-15.6,1.7-2.5,3-3.5,2.2-1.3,3.5-1.6h1.9Z"/>
  <path d="M243,94.5h-1.3c-2.1-.3-4.1-1.2-5.1-3.2s-1-3.2-.6-4.9,2-3.9,4.2-4.6c3.8-1.1,8.1.6,8.8,4.8s0,3.3-.8,4.8-3,2.8-5.1,3ZM242.4,92c2.1,0,3.7-1.5,3.8-3.6s-.2-2.5-1.2-3.4c-1.4-1.2-3.7-1.2-5.1,0s-1.3,2.5-1.1,3.8,1.8,3.1,3.7,3.1Z"/>
  <path d="M219.3,94.5h-1.2c-1.7-.2-3.4-.8-4.6-2.2s-1.5-3-1.4-4.7c.1-2.9,2-5.2,4.8-5.8s2.4-.2,3.6,0c3,.7,4.8,3.2,4.8,6.2s-2.5,6.2-6.1,6.5ZM222.6,88c0-2.2-1.7-3.9-3.9-3.9s-3.9,1.7-3.9,3.9,1.7,3.9,3.9,3.9,3.9-1.7,3.9-3.9Z"/>
  <path d="M99.7,94.5h-1.5c-2.2-.3-4.2-1.2-5.2-3.2s-1-3.7-.4-5.6,2.2-3.3,4.1-3.8,5.4-.3,7.1,1.3l-1.9,2.1c-1.4-1.6-4.4-1.6-5.8,0s-1.2,2.4-.9,3.7,1.3,2.6,2.8,2.9,2.3,0,3.4-.5v-1.9s-2.2,0-2.2,0v-2.5s4.8,0,4.8,0v6.4c-1.4.8-2.8,1-4.3,1.2Z"/>
  <path d="M154.2,94.5h-1.2c-1.3-.2-2.5-.6-3.5-1.6l1.9-2.1c.9,1.1,2.3,1.5,3.5.9s.7-.6.7-1c0-2.2-5.6-1.1-5.8-5s2.4-4.3,5-4.1,2.6.4,3.5,1.3l-1.8,2c-.9-.8-2.2-1.1-3.3-.4s-.5.5-.5.8c-.1,2.2,5.7.8,5.7,5.1s-1.9,3.8-4.2,4.1Z"/>
  <path d="M175.9,94.5h-1.1c-2.3-.2-4.5-1.4-5.5-3.6s-.5-7,2.8-8.6,5.8-1.1,7.4,1.1l-2.1,1.7c-.3-.3-.6-.5-1-.7-1.8-.8-3.9,0-4.6,2s.2,5.2,2.7,5.6,2.3-.3,3-1.3l2.3,1.7c-.9,1.4-2.4,1.9-3.9,2.2Z"/>
  <path d="M197,38.8l6.8,20.2h-5.2s-6.2-19.1-6.2-19.1h-5.5s0,19.1,0,19.1h-4.5s0-53.3,0-53.3h11.7c1.6,0,3,.8,4.1,1.8,5,4.9,5.2,15.7,4.2,22.1-.4,1.9-.9,3.8-1.8,5.5-.8,1.5-1.9,2.8-3.6,3.6ZM198,18.6c-.2-1.5-.7-2.7-1.5-4-.7-.9-1.6-1.7-2.8-1.7h-6.9s0,20,0,20h6.9c1.2,0,2.2-.9,2.9-1.8,2.1-3.1,2-9,1.4-12.5Z"/>
  <path d="M228,38.8l6.8,20.2h-5.2s-6.2-19-6.2-19h-5.5s0,19.1,0,19.1h-4.5s0-53.3,0-53.3h11.9c1.7,0,3.1,1,4.3,2.1,4.7,5.1,4.9,15.6,3.8,22-.7,3.4-1.9,7.2-5.3,8.9ZM229,18.4c-.3-1.4-.7-2.7-1.5-3.8-.7-.8-1.6-1.6-2.7-1.6h-6.9s0,20,0,20h7c1.2,0,2-.9,2.7-1.7,2.2-3.2,2.1-9.3,1.4-12.8Z"/>
  <path d="M165.7,43.3h-9.7s-3,15.6-3,15.6h-4.8s10.8-53.3,10.8-53.3h3.6s10.8,53.3,10.8,53.3h-4.8s-2.9-15.6-2.9-15.6ZM164.4,36.4l-3.5-18.4-3.6,18.4h7Z"/>
  <path d="M77.7,43.3h-9.7s-3,15.6-3,15.6h-4.8s10.8-53.3,10.8-53.3h3.6s10.8,53.2,10.8,53.2h-4.8s-2.9-15.6-2.9-15.6ZM76.4,36.4l-3.5-18.4-3.6,18.4h7Z"/>
  <path d="M260.1,43.3h-9.7s-3,15.6-3,15.6h-4.8s10.8-53.2,10.8-53.2h3.6s10.8,53.2,10.8,53.2h-4.8s-2.9-15.6-2.9-15.6ZM258.8,36.4l-3.5-18.5-3.6,18.5h7Z"/>
  <polygon points="112.2 59 93.4 59 93.4 52 106.9 13 93.9 13 93.9 5.7 112.2 5.7 112.2 12.3 98.6 51.6 112.2 51.7 112.2 59"/>
  <polygon points="57 94.2 56.9 84.9 53.7 94.2 51.6 94.2 48.6 85 48.6 94.2 45.8 94.2 45.8 81.9 49.9 81.9 52.7 89.9 55.6 81.9 59.7 81.9 59.7 94.2 57 94.2"/>
  <polygon points="201 94.2 198.3 94.2 198.3 88.9 193.1 88.9 193.1 94.2 190.3 94.2 190.3 81.9 193.1 81.9 193.1 86.5 198.3 86.5 198.3 81.9 201 81.9 201 94.2"/>
  <polygon points="123.6 89.2 118.3 89.2 118.3 91.7 124.3 91.7 124.3 94.2 115.6 94.2 115.6 81.9 124 81.9 124 84.4 118.3 84.4 118.3 86.7 123.6 86.7 123.6 89.2"/>
  <path d="M78.9,91.6h-4.7s-1,2.6-1,2.6h-3s5.3-12.3,5.3-12.3h2.3s5.3,12.3,5.3,12.3h-3.1s-1-2.6-1-2.6ZM78,89.2l-1.5-3.6-1.5,3.7h2.9Z"/>
  <polygon points="267.9 91.7 267.9 94.2 260.1 94.2 260.1 81.9 262.9 81.9 262.9 91.7 267.9 91.7"/>
  <rect x="26.6" y="86.7" width="12.3" height="2.7" transform="translate(-55.3 120.8) rotate(-90)"/>
</svg>