<?xml version="1.0" encoding="UTF-8"?>
<svg id="Capa_1" xmlns="http://www.w3.org/2000/svg" version="1.1" viewBox="0 0 300 99.8">
  <!-- Generator: Adobe Illustrator 30.1.0, SVG Export Plug-In . SVG Version: 2.1.1 Build 136)  -->
  <g>
    <path d="M51.9,23.5l-.4-.3c.1-.4.1-.6.1-.8,0-.5-.6-1-2.1-1.8-2-1-4.2-1.5-6.5-1.5-6.3,0-10.6,3.9-10.6,9.5s4.5,9.7,10.5,9.7,5.4-.9,7.6-2.5c1-.7,1.5-1.3,1.5-1.6s-.1-.4-.3-.8l.5-.3,3,3.7-.4.3c-.3-.3-.6-.4-.8-.4s-.3,0-.7.3c-3.5,2.7-6.2,3.6-10.3,3.6s-7-1.1-9.5-3.2c-2.5-2.2-3.8-5.3-3.8-8.7,0-7.1,5.5-12,13.6-12s6.4.8,9.6,2.6c.2.1.3.2.4.2.2,0,.3-.1.8-.7l.4.3-2.5,4.2Z"/>
    <path d="M62.4,38.4c0,.9.2,1.2,1.1,1.5v.4h-4.6v-.4c.9-.2,1.1-.5,1.1-1.5v-15.1c0-.9-.2-1.2-1.1-1.5v-.4h11.2c2.6,0,4,.3,5.2,1.2,1.3.9,2,2.4,2,4,0,2.9-1.9,4.6-5.4,4.9l4.8,7.5c.4.6.6.7,1.3.8v.4h-4.7v-.4c.4-.1.7-.2.7-.4s-.1-.4-.4-.8l-4.4-6.9h-6.9v6.7ZM69.6,29.9c2.3,0,3.2-.1,4.1-.6.8-.5,1.3-1.4,1.3-2.6s-.4-2.1-1.2-2.7c-.8-.6-1.9-.8-3.9-.8h-7.5v6.7h7.2Z"/>
    <path d="M84.6,38.5h11.7c1,0,1.2-.2,1.5-1.1h.5v4h-.5c-.2-.9-.5-1.1-1.5-1.1h-15.2v-.4c.9-.2,1.1-.5,1.1-1.5v-15.1c0-.9-.2-1.2-1.1-1.5v-.4h15.1c.9,0,1.2-.2,1.5-1.1h.5v4h-.5c-.2-.9-.5-1.1-1.5-1.1h-11.6v6.4h7.4c.9,0,1.2-.2,1.5-1.1h.4v4h-.4c-.2-.9-.5-1.1-1.5-1.1h-7.4v7Z"/>
    <path d="M106,35l-1.5,3.2c-.1.3-.2.7-.2.9,0,.4.3.6.9.8v.4h-4.7v-.4c.9-.2,1.3-.7,2-2.1l6.3-13.6c.4-.9.5-1.2.5-1.6,0-.4-.2-.6-.9-.7v-.4h5.5v.4c-.6.1-.8.3-.8.7s.1.7.7,1.8l6,13.1c.9,1.8,1.3,2.3,2.2,2.4v.4h-4.9v-.4c.6-.1.8-.3.8-.6s0-.3-.4-1.1l-1.4-3.2h-9.9ZM111,23.9l-4.2,9.3h8.3l-4.1-9.3Z"/>
    <path d="M130.5,38.4c0,.9.2,1.2,1.1,1.5v.4h-4.6v-.4c.9-.2,1.1-.5,1.1-1.5v-15.1h-6.2c-.9,0-1.2.2-1.5,1.1h-.4v-4h.4c.2.9.5,1.1,1.5,1.1h14.8c.9,0,1.2-.2,1.5-1.1h.4v4h-.4c-.2-.9-.5-1.1-1.5-1.1h-6.2v15.1Z"/>
    <path d="M145.9,40.3h-4.6v-.4c.9-.2,1.1-.5,1.1-1.5v-15.1c0-.9-.2-1.2-1.1-1.5v-.4h4.6v.4c-.9.2-1.1.5-1.1,1.5v15.1c0,.9.2,1.2,1.1,1.5v.4Z"/>
    <path d="M165.1,23.8c.2-.4.2-.7.2-.9,0-.6-.3-.9-1-1v-.4h4.7v.4c-1,.3-1.2.6-2,2.5l-5.8,13.2c-.3.7-.4,1-.4,1.4,0,.6.2.8.9.9v.4h-5.8v-.4c.7-.1,1-.4,1-.9s-.1-.7-.4-1.4l-5.9-13.2c-.9-1.9-1.1-2.2-2.1-2.5v-.4h5.2v.4c-.6.1-1,.4-1,.9s.1.6.2,1l6.1,13.9,6.1-13.9Z"/>
    <path d="M175.2,38.5h11.7c1,0,1.2-.2,1.5-1.1h.5v4h-.5c-.2-.9-.5-1.1-1.5-1.1h-15.2v-.4c.9-.2,1.1-.5,1.1-1.5v-15.1c0-.9-.2-1.2-1.1-1.5v-.4h15.1c.9,0,1.2-.2,1.5-1.1h.4v4h-.4c-.2-.9-.5-1.1-1.5-1.1h-11.6v6.4h7.4c.9,0,1.2-.2,1.5-1.1h.5v4h-.5c-.2-.9-.5-1.1-1.5-1.1h-7.4v7Z"/>
    <path d="M196.5,29.6v8.7c0,1,.2,1.2,1.1,1.5v.6h-4.8v-.6c.9-.2,1.1-.5,1.1-1.5v-19c0-1-.2-1.2-1.1-1.5v-.6h4.8v.6c-.9.2-1.1.5-1.1,1.5v8.1h15.8v-8.1c0-1-.2-1.2-1.1-1.5v-.6h4.8v.6c-.9.2-1.1.5-1.1,1.5v19c0,1,.2,1.2,1.1,1.5v.6h-4.8v-.6c.9-.2,1.1-.5,1.1-1.5v-8.7h-15.8Z"/>
    <path d="M224.6,35l-1.5,3.2c-.1.3-.2.7-.2.9,0,.4.3.6.9.8v.4h-4.7v-.4c.9-.2,1.3-.7,2-2.1l6.3-13.6c.4-.9.5-1.2.5-1.6,0-.4-.2-.6-.9-.7v-.4h5.5v.4c-.6.1-.8.3-.8.7s.1.7.7,1.8l6,13.1c.9,1.8,1.3,2.3,2.2,2.4v.4h-4.9v-.4c.6-.1.8-.3.8-.6s0-.3-.4-1.1l-1.4-3.2h-9.9ZM229.5,23.9l-4.2,9.3h8.3l-4.1-9.3Z"/>
    <path d="M247,40.3h-4.6v-.4c.9-.2,1.1-.5,1.1-1.5v-15.1c0-.9-.2-1.2-1.1-1.5v-.4h4.6v.4c-.9.2-1.1.5-1.1,1.5v15.1c0,.9.2,1.2,1.1,1.5v.4Z"/>
    <path d="M254.5,38.4c0,.9.2,1.2,1.1,1.5v.4h-4.6v-.4c.9-.2,1.1-.5,1.1-1.5v-15.1c0-.9-.2-1.2-1.1-1.5v-.4h11.2c2.6,0,4,.3,5.2,1.2,1.3.9,2,2.4,2,4,0,2.9-1.9,4.6-5.4,4.9l4.8,7.5c.4.6.6.7,1.3.8v.4h-4.7v-.4c.4-.1.7-.2.7-.4s-.1-.4-.4-.8l-4.4-6.9h-6.9v6.7ZM261.7,29.9c2.3,0,3.2-.1,4.1-.6.8-.5,1.3-1.4,1.3-2.6s-.4-2.1-1.2-2.7c-.8-.6-1.9-.8-3.9-.8h-7.5v6.7h7.2Z"/>
  </g>
  <g>
    <path d="M115.5,82.1c.7-.2.9-.4.9-1.2v-16.4c0-.8-.2-1-.9-1.2v-.5h11.8c2.3,0,3.7.3,4.9,1.2,1.2.9,2,2.4,2,4.1s-.9,3.3-2.8,4.2c2.3.8,3.5,2.4,3.5,4.8s-.7,3.3-2,4.2c-1.3.9-2.8,1.3-5.8,1.3h-11.5v-.5ZM126.3,71.3c2.2,0,3,0,3.9-.5,1.1-.5,1.7-1.5,1.7-2.8s-.7-2.3-1.7-2.9c-.9-.4-1.8-.6-4.1-.6h-7.5v6.7h7.6ZM126.6,80.7c2.3,0,3.1-.1,4.1-.5,1.2-.5,1.8-1.7,1.8-3.1s-.7-2.6-1.8-3.2c-.9-.5-1.9-.7-4.2-.7h-7.8v7.5h7.9Z"/>
    <path d="M157.3,68.1l-.4-.2c0-.3.1-.5.1-.7,0-.4-.5-.9-1.8-1.5-1.7-.8-3.6-1.2-5.6-1.2-5.4,0-9.1,3.3-9.1,8.1s3.8,8.3,9,8.3,4.6-.7,6.5-2.2c.8-.6,1.3-1.1,1.3-1.4s0-.4-.3-.7l.4-.3,2.5,3.1-.4.3c-.3-.3-.5-.4-.7-.4s-.2,0-.6.3c-3,2.3-5.3,3.1-8.9,3.1s-6-.9-8.1-2.8c-2.1-1.9-3.3-4.5-3.3-7.4,0-6.1,4.7-10.2,11.7-10.2s5.5.7,8.2,2.2c.2.1.3.1.4.1.1,0,.3,0,.7-.6l.4.2-2.1,3.6Z"/>
    <path d="M166.7,80.9c0,.8.2,1.1.9,1.2v.5h-3.9v-.5c.7-.2.9-.4.9-1.2v-16.3c0-.8-.2-1.1-.9-1.2v-.5h5.7v.5c-.5.1-.7.4-.7.7s.1.4.7,1.1l11.9,13.9v-14.4c0-.8-.2-1.1-.9-1.2v-.5h3.9v.5c-.7.2-.9.4-.9,1.2v16.3c0,.8.2,1.1.9,1.2v.5h-4.5v-.5c.4-.1.7-.3.7-.6s-.1-.5-.6-1l-13.1-15.2v15.5Z"/>
  </g>
  <rect x="193.3" y="71.7" width="77.1" height="2.2"/>
  <rect x="29.9" y="71.7" width="77.1" height="2.2"/>
</svg>