<?xml version="1.0" encoding="UTF-8"?>
<svg id="Capa_1" xmlns="http://www.w3.org/2000/svg" version="1.1" viewBox="0 0 912 908">
  <!-- Generator: Adobe Illustrator 30.1.0, SVG Export Plug-In . SVG Version: 2.1.1 Build 136)  -->
  <defs>
    <style>
      .st0 {
        fill: #fff;
      }

      .st1 {
        fill: #631219;
      }
    </style>
  </defs>
  <circle class="st1" cx="454.7" cy="446.1" r="438.1"/>
  <path class="st0" d="M716.1,319.8h-40.3l-17.1-107.1-17.5,107.1h-113.6c-2.6-52.1-37.2-95.3-80.2-107.1v107.1h-112.5v-106.9l-51.2,150.1-51.2-150.1v106.9h-39v11.8h39v108.2h13.9v-147.9l37.6,110.6,36.1-110.6v147.9h14.7v-108.2h112.5v107.3c43.2-11.7,78-54.9,80.3-107.3h111.6l-17.7,108.2h14.1l15.9-108.2h13.8l16.5,108.2h13.3l-17.3-108.2h38.4v-11.8ZM461.5,417.2v-182s52.3,27.6,52.2,91.3c0,63.5-52.2,90.8-52.2,90.8ZM653.2,319.8l5-34.3,5.2,34.3h-10.2Z"/>
  <rect class="st0" x="193.4" y="483.9" width="522.6" height="11.8"/>
  <polygon class="st0" points="354.2 550.9 341.5 550.9 333.7 550.9 321.1 550.9 321.1 558.7 333.7 558.7 333.7 677.5 341.5 677.5 341.5 558.7 354.2 558.7 354.2 550.9"/>
  <rect class="st0" x="379.8" y="550.9" width="7.8" height="126.5"/>
  <rect class="st0" x="472.1" y="550.9" width="7.8" height="126.5"/>
  <polygon class="st0" points="252 558.7 252 550.9 233.1 550.9 229.2 550.9 225.3 550.9 225.3 677.5 229.2 677.5 233.1 677.5 252 677.5 252 669.7 233.1 669.7 233.1 615.3 252 615.3 252 607.5 233.1 607.5 233.1 558.7 252 558.7"/>
  <polygon class="st0" points="584.8 550.9 572.1 550.9 564.3 550.9 551.7 550.9 551.7 558.7 564.3 558.7 564.3 677.5 572.1 677.5 572.1 558.7 584.8 558.7 584.8 550.9"/>
  <polygon class="st0" points="428.6 669.7 428.6 550.9 420.7 550.9 420.7 669.7 420.7 677.5 428.6 677.5 447.1 677.5 447.1 669.7 428.6 669.7"/>
  <path class="st0" d="M632.9,677.5h7.8l-17.6-106.8h0l-3.9-23.9-3.9,23.9h0l-17.6,106.8h7.8l4-24h19.4l4,24ZM610.8,645.6l8.4-51.2,8.4,51.2h-16.8Z"/>
  <path class="st0" d="M295.7,549.3l2.4,7.6s-27.1,5.7-5.2,54.4-.4,65.8-8.5,68.2l-3.6-7.6s27.1-5.4,3.1-60.6,11.8-62.1,11.8-62.1Z"/>
  <path class="st0" d="M526.2,549.3l2.4,7.6s-27.1,5.7-5.2,54.4c21.9,48.8-.4,65.8-8.5,68.2l-3.6-7.6s27.1-5.4,3.1-60.6,11.8-62.1,11.8-62.1Z"/>
  <path class="st0" d="M677.6,549.3l2.4,7.6s-27.1,5.7-5.2,54.4c21.9,48.8-.4,65.8-8.5,68.2l-3.6-7.6s27.1-5.4,3.1-60.6,11.8-62.1,11.8-62.1Z"/>
</svg>