<?xml version="1.0" encoding="UTF-8"?>
<svg id="Capa_1" xmlns="http://www.w3.org/2000/svg" version="1.1" viewBox="0 0 300 99.8">
  <!-- Generator: Adobe Illustrator 30.1.0, SVG Export Plug-In . SVG Version: 2.1.1 Build 136)  -->
  <path d="M137.8,80.3l4.7-7.7c.3-.5.4-1.1.3-1.7-1,.3-1.7.6-2.5,1.1-6.7,4.9-9.7,11.3-13.1,18.8-.9-.3-1.3-.9-1.8-1.8-1.4,1.1-3.1,1.9-4.9,1.8-2.7,0-4.6-1.8-5-4.5-.7-5.3,3.8-10.5,7.2-14.5-2,1.1-4.2,1.8-6.6,2.1-2,5.8-7.3,17.2-14.6,16.8s-3.8-2.1-3.7-4.5c-2.3,2.6-5.7,5.6-9.1,4-3.9-1.8-2.7-7.9-.9-11.3s4.2-6.2,7.1-8.5,5.8-3.7,8-1.8.9,1.6,1.1,2.8l2.1-3.2c0-.1.5-.4.6-.3,1.2.3,1.5,3,1.2,4.3-.4,1.6-1.1,3.1-1.9,4.5-1.4,2.3-2.7,4.6-3.9,7s-1.6,4.4-.4,5.2,1.1.2,1.5,0c5-1.9,9-10.5,10.5-15.4-1.2-.6-2-1.7-1.7-3.1.5-2.9,3.5-6.8,5.2-6.3s0,5.7-.4,7.1c2.5-.4,4.5-1.5,6.5-2.9s2.7,2,2.9,3-.2,2.2-1,3c-2.2,2.6-4.2,5.2-5.7,8.2-.9,1.8-1.6,5.3,0,6.3s1.5.3,1.9.1c2.5-1.1,3.6-3.2,4.6-5.6,2.1-5.3,5.3-10.8,8.3-15.5s.8-.4.9-.2c1.3,1.7.9,4.2.2,6.2,1.7-1.9,6.7-6.7,9.2-5.9s2,3.5,1.7,5.2c1.7-1.6,6.5-5.7,8.7-4.9s1.5,5.1.3,7.1l-3.7,6.3c-.9,1.5-1.6,3-1.8,4.7s.7,2.9,2.2,2.7c2.5-.3,5.8-5.2,6.2-6.8.7-2.5,1.2-4.9,2.6-7.1,1.5-2.4,3.2-4.6,5.7-6.2s2.9-1.6,4.5-1.2,3.8,2,4.7,3.8.2,2.7-.2,3.9c-.8,2.3-2.4,4.2-4.4,5.5-2.5,1.7-5.4,1.3-7.8-.7-.8,2-1.1,4.1-.6,6.1s2.1,3,4.1,2.7,4.3-1.4,6-3,3.4-3.1,4.1-5.1l1.9-5.9c1.6-4.8,10.6-19.7,13.4-20s1,.3,1.4.7c3,3.1.3,8.9-1.5,12.1s-6.1,7.9-10.3,10.8c-.9,1.8-3.5,9.4-.8,10.3s7.1-3.9,8.1-6.4c2-4.9,4.4-9.5,7.4-13.8s.7-.5.9-.4c1.5.6,1.4,4.2.4,6.1l-4.2,8c-.7,1.4-2.3,5.1-1.1,6.3s1.1.4,1.5.3c3.2-.9,5.7-4.9,7-7.8,2.1-4.5,4.1-8.9,6.6-13.2-1.3.4-4.4-1.1-3.9-2.1s4.1,0,5.5-.6c.9-1.3,3.8-7.4,5-7.4s.6.4.6.7c.6,2.1.1,4.2-1,6.1,1.9-.1,3.6.8,3.7,2.3s-3.9.2-5.2.6c-2.7,4.7-5.3,9.2-7.6,14.2-1,2.2-1.7,6.5.6,7.3s6.3-3.9,7-5.9,1.9-5.2,3.7-7.5,3.5-4.3,5.9-6,5.5-3,7.5-1.1,1.1,2,1.1,3.1l2.1-3.5c1.1-1.9,3.3,2.4,1,6.3l-4.7,8.2c-.8,1.5-2.2,4.7-1.2,6.1s.9.5,1.4.4c3.3-.8,5.7-5.4,7.5-8.2,1,.8.7,2,.3,3-.9,2.7-3,5-5.6,6.3s-4.3.8-6.1-.6-1.1-1.8-1.4-2.7v-.3c-2.3,2.6-5.9,5.3-9.1,3.6s-1.9-1.8-2.2-3.3c-2.3,2.7-6.2,5.1-9.6,3s-1.9-2-2.4-3.7c-2,2.7-4.7,4.5-7.9,4.4s-3.8-1.3-4.1-3.4c-2.4,2.6-6.9,4.6-10.2,2.5s-1.7-2.4-2-4.1c-2.8,3.2-6.6,5.3-10.9,5.2s-5.9-1.9-6.7-5c-2,3.3-5.8,5.7-9.7,4.7s-3.6-2.5-3.5-4.8c.3-4.8,5.2-9.9,7.2-14.6-1.1,0-1.8.4-2.6,1-9.8,7.3-12.7,18.6-13.9,18.9s-.7-.3-.9-.5c-2-2.7.3-7.6,1.9-10.3ZM193.2,60.5c-.8.4-1.3.9-1.8,1.6-3.1,4.4-5.8,8.9-8.2,13.9,3.8-2.6,9.8-10.8,10-15.5ZM173.2,72.2c.2-.4.3-1.5,0-1.8-2.8-1.1-8.2,6.3-8.9,8.7,3.9,2.5,7.8-4.1,8.9-6.9ZM95.5,86c2.8-3.4,5-7.2,6.6-11.3.4-.9,1-3.6,0-4.1s-3,1.1-3.8,1.8c-3,2.7-5.5,6-7.1,9.7-.7,1.5-1.9,5.4-.3,6.4s3.7-1.4,4.6-2.5ZM222.4,85.6c2.4-3,4.3-6.3,5.8-9.9s1.6-4.1.6-4.9-3.6,1.2-4.5,2.1c-2.7,2.6-5,5.7-6.5,9.1s-2,5.4-.6,6.5,4.2-1.6,5.2-2.9Z"/>
  <path d="M127.9,45.3c-4.7.8-7.2-2.7-8-6.9-1-5.6,3.3-8.1,7.8-9.9,4.9-2.3,9.5-5.2,13.3-9.1,3.2-3.1,5.4-6.6,7.1-10.8,0,7.2-1.3,13.9-4,20.4-2.8,6.5-8.8,14.9-16.1,16.2ZM122.7,41c0,2.1,4.2,3.5,7.7,1.9,6.4-2.9,10.8-9.8,13.3-15.9-2.1,3.1-4,6-6.4,8.7-8.9,9.8-13,3.8-14.2,4.6s-.4.6-.4.8Z"/>
  <path d="M174.8,31.1c3.9,2.9,3.7,8.1,1.3,11.7s-10,1.9-13.8-1.4c-8.6-7.7-12.8-20.9-12.7-32.5,3.9,9.7,11.8,15.8,21,20,1.5.6,2.9,1.3,4.2,2.3ZM175.1,41.1c0-.2-.3-.9-.5-.9-1.1-.2-4,2.6-8.6,0-5-2.8-8.7-8.6-11.9-13.2,2.6,6.2,6.8,12.7,13.1,15.7,3,1.4,7.3,1,8-1.6Z"/>
  <path d="M73,88.2c4.4-1.5,7.3-6.1,9.4-9.9s3.5,2.8-1.6,8.2c-4.6,4.9-13,5.5-16.4,0-1.2-1.9-1.8-4-1.9-6.3-.3-9.1,5.3-17.8,12.5-22.9,2-1.4,4.3-2.4,6.6-2.8s4.3.6,5.8,2.4,2.2,5,1,7.8l-2.5,6c-1.5-.3-2.2-1.4-2.4-2.7-.8-3.8,3.7-8.5,1.8-10.5s-4,.5-5.2,1.2c-6.4,4-11.2,10.3-13,17.6s-.8,5.9,0,8.7,3.2,4.1,5.9,3.2Z"/>
  <path d="M134,55.5c-1.5-1.4-2.6-3.1-2.6-5.1s1.1-2.4,2-3.4c7.7-6,11.3-13.6,14.6-23,.2,6,.5,27.8-3.4,31.7-3,3-7.6,2.6-10.6-.3ZM141.9,56c1.7-.8,2.8-2,3.2-3.9,1-4.2,1.6-8.9,2-13.4-.7,1.1-.5,2.3-.7,3.5-.6,3.7-1.6,7.9-3.8,10.9s-5.4.3-5.4.9c0,1.9,2.9,2.7,4.6,1.9Z"/>
  <path d="M166,49.2c1.4,2.5-1.8,6.8-5.2,8.1s-5.8.5-7.7-1.7c-2.2-2.5-2.9-10.2-3.1-13.6-.3-6-.5-11.8-.2-18,3,8.8,6.6,16.6,13.9,22.5.9.8,1.8,1.7,2.4,2.7ZM160.3,54.1c-.1,0-.5,0-.6.1-5.6,3.1-7.8-7.9-8.4-11.5s-.3-2.6-.7-3.8v1.8c.2,2.3,1.4,9.1,2,11.6s2.4,4.1,4.8,4.1,3.3-2.3,2.9-2.2Z"/>
  <path d="M202.5,67.1c-.2.6-.8,1.1-1.3,1.2s-1.3-.1-1.7-.5c-1.2-1.1-1.5-2.8-.8-4.2s1.5-1.5,2.5-.8c1.4.9,2,2.7,1.3,4.4Z"/>
</svg>