<?xml version="1.0" encoding="UTF-8"?>
<svg id="Capa_1" xmlns="http://www.w3.org/2000/svg" version="1.1" viewBox="0 0 300 99.8">
  <!-- Generator: Adobe Illustrator 30.1.0, SVG Export Plug-In . SVG Version: 2.1.1 Build 136)  -->
  <g>
    <path d="M63.1,48.3c0,2.2-.6,4.2-1.7,6-1.1,1.8-2.7,3.1-4.6,4.1-1.9,1-4,1.5-6.3,1.5h-21.2V14.9h21.7c2.1,0,3.9.6,5.5,1.7,1.5,1.1,2.7,2.6,3.6,4.3.8,1.8,1.2,3.6,1.2,5.5s-.6,4.3-1.7,6.2c-1.1,1.9-2.7,3.3-4.8,4.2,2.6.8,4.6,2.2,6.1,4.2,1.5,2.1,2.3,4.5,2.3,7.2ZM33.7,18.8v16.6h15.5c1.5,0,2.8-.4,3.9-1.2,1.1-.8,2-1.8,2.7-3.1.7-1.3,1-2.6,1-4.1s-.3-2.9-1-4.2c-.6-1.2-1.5-2.3-2.6-3-1.1-.8-2.3-1.1-3.7-1.1h-15.8ZM58.6,47.6c0-1.5-.3-2.9-1-4.2-.7-1.3-1.6-2.3-2.8-3.1-1.2-.8-2.5-1.2-4-1.2h-17.2v17.1h16.8c1.5,0,2.9-.4,4.1-1.2,1.2-.8,2.2-1.8,2.9-3.1.7-1.3,1.1-2.7,1.1-4.2Z"/>
    <path d="M101.7,56v3.9h-30.2V14.9h29.7v3.9h-25.2v16.2h22v3.7h-22v17.2h25.8Z"/>
    <path d="M110.3,14.9l14.7,24.2,14.8-24.2h4.8l-17.4,28.3v16.7h-4.4v-16.9l-17.4-28.1h4.9Z"/>
    <path d="M155.8,23.1v36.8h-4.4V14.9h3.7l29.5,37.5V15h4.4v44.9h-4.1l-29.1-36.8Z"/>
    <path d="M214.2,14.9h3.7l18.7,45h-4.7l-5.6-14.1h-20.6l-5.6,14.1h-4.8l18.8-45ZM225,42.4l-8.9-22.3-8.9,22.3h17.8Z"/>
    <path d="M270.8,18.9h-16v41.1h-4.4V18.9h-16v-3.9h36.5v3.9Z"/>
  </g>
  <g>
    <path d="M123.8,78c0-1.1.4-2.1,1.3-2.9.8-.8,1.8-1.2,3-1.2s2.1.4,3,1.2c.8.8,1.2,1.8,1.2,3s-.4,2.2-1.3,3c-.8.8-1.8,1.2-3,1.2s-2-.4-2.8-1.1c-.9-.8-1.4-1.9-1.4-3.2ZM125,78c0,.9.3,1.6.9,2.2.6.6,1.3.9,2.1.9s1.6-.3,2.2-.9c.6-.6.9-1.3.9-2.2s-.3-1.6-.9-2.2c-.6-.6-1.3-.9-2.1-.9s-1.6.3-2.1.9c-.6.6-.9,1.3-.9,2.2Z"/>
    <path d="M136,76.9h1.2v.5c.2-.2.4-.4.6-.5.2,0,.4-.1.6-.1s.6.1,1,.3l-.5,1.1c-.2-.2-.4-.2-.7-.2-.6,0-1,.5-1,1.5v2.7h-1.2v-5.1Z"/>
    <path d="M147.4,81.9c0,.2,0,.5,0,.6,0,.2,0,.3,0,.5,0,.4-.2.7-.5,1-.5.5-1.1.8-1.9.8s-1.2-.2-1.7-.6c-.5-.4-.7-.9-.8-1.6h1.2c0,.3.1.4.2.6.2.3.6.5,1.1.5.9,0,1.3-.5,1.3-1.6v-.7c-.5.5-1,.7-1.6.7s-1.3-.3-1.7-.8c-.4-.5-.7-1.2-.7-1.9s.2-1.4.6-1.9c.4-.6,1-.8,1.8-.8s1.2.2,1.6.7v-.6h1.2v5ZM146.2,79.5c0-.5-.1-.9-.4-1.2-.3-.3-.6-.5-1-.5s-.8.2-1.1.5c-.2.3-.4.7-.4,1.2s.1.8.4,1.1c.3.3.6.5,1.1.5s.8-.2,1.1-.5c.2-.3.4-.7.4-1.1Z"/>
    <path d="M155,76.9h1.2v5.1h-1.2v-.5c-.5.5-1,.7-1.6.7s-1.3-.3-1.8-.8c-.5-.5-.7-1.2-.7-2s.2-1.4.7-1.9c.5-.5,1-.8,1.7-.8s1.1.2,1.6.7v-.6ZM152.2,79.5c0,.5.1.9.4,1.2.3.3.6.5,1,.5s.8-.2,1.1-.5c.3-.3.4-.7.4-1.2s-.1-.9-.4-1.2c-.3-.3-.6-.5-1.1-.5s-.7.2-1,.5c-.3.3-.4.7-.4,1.2Z"/>
    <path d="M160.1,76.9h1.2v.5c.4-.4.9-.6,1.4-.6s1.1.2,1.4.6c.3.3.4.8.4,1.6v3.1h-1.2v-2.9c0-.5,0-.9-.2-1-.1-.2-.4-.3-.7-.3s-.7.1-.8.4c-.2.3-.2.7-.2,1.3v2.5h-1.2v-5.1Z"/>
    <path d="M168.2,74.8c0-.2,0-.4.2-.5.2-.2.3-.2.5-.2s.4,0,.5.2c.2.1.2.3.2.5s0,.4-.2.5c-.1.2-.3.2-.5.2s-.4,0-.5-.2-.2-.3-.2-.6ZM169.6,76.9v5.1h-1.2v-5.1h1.2Z"/>
    <path d="M177.5,77.2v1.6c-.3-.3-.5-.6-.7-.7-.2-.1-.5-.2-.7-.2-.4,0-.8.2-1.1.5s-.4.7-.4,1.2.1.9.4,1.2c.3.3.7.5,1.1.5s.5,0,.8-.2c.2-.1.5-.4.7-.7v1.6c-.5.2-1,.4-1.4.4-.8,0-1.5-.3-2-.8-.5-.5-.8-1.2-.8-1.9s.3-1.4.8-1.9c.5-.5,1.2-.8,2-.8s1,.1,1.4.4Z"/>
  </g>
</svg>